<svg width="66" height="66" viewBox="0 0 66 66" fill="none" xmlns="http://www.w3.org/2000/svg">
<circle cx="33" cy="33" r="33" fill="#964CDB"/>
<g clip-path="url(#clip0)">
<path d="M33 18.2445C37.806 18.2445 38.376 18.2625 40.275 18.3495C45.153 18.5715 47.4315 20.886 47.6535 25.728C47.7405 27.6255 47.757 28.1955 47.757 33.0015C47.757 37.809 47.739 38.3775 47.6535 40.275C47.43 45.1125 45.1575 47.4315 40.275 47.6535C38.376 47.7405 37.809 47.7585 33 47.7585C28.194 47.7585 27.624 47.7405 25.7265 47.6535C20.8365 47.43 18.57 45.105 18.348 40.2735C18.261 38.376 18.243 37.8075 18.243 33C18.243 28.194 18.2625 27.6255 18.348 25.7265C18.5715 20.886 20.844 18.57 25.7265 18.348C27.6255 18.2625 28.194 18.2445 33 18.2445V18.2445ZM33 15C28.1115 15 27.4995 15.021 25.5795 15.108C19.0425 15.408 15.4095 19.035 15.1095 25.578C15.021 27.4995 15 28.1115 15 33C15 37.8885 15.021 38.502 15.108 40.422C15.408 46.959 19.035 50.592 25.578 50.892C27.4995 50.979 28.1115 51 33 51C37.8885 51 38.502 50.979 40.422 50.892C46.953 50.592 50.595 46.965 50.8905 40.422C50.979 38.502 51 37.8885 51 33C51 28.1115 50.979 27.4995 50.892 25.5795C50.598 19.0485 46.9665 15.4095 40.4235 15.1095C38.502 15.021 37.8885 15 33 15V15ZM33 23.757C27.8955 23.757 23.757 27.8955 23.757 33C23.757 38.1045 27.8955 42.2445 33 42.2445C38.1045 42.2445 42.243 38.106 42.243 33C42.243 27.8955 38.1045 23.757 33 23.757ZM33 39C29.6865 39 27 36.315 27 33C27 29.6865 29.6865 27 33 27C36.3135 27 39 29.6865 39 33C39 36.315 36.3135 39 33 39ZM42.609 21.2325C41.415 21.2325 40.4475 22.2 40.4475 23.3925C40.4475 24.585 41.415 25.5525 42.609 25.5525C43.8015 25.5525 44.7675 24.585 44.7675 23.3925C44.7675 22.2 43.8015 21.2325 42.609 21.2325Z" fill="white"/>
</g>
<defs>
<clipPath id="clip0">
<rect width="36" height="36" fill="white" transform="translate(15 15)"/>
</clipPath>
</defs>
</svg>
