<svg width="52" height="51" viewBox="0 0 52 51" fill="none" xmlns="http://www.w3.org/2000/svg">
<rect x="10" y="10" width="32" height="30" fill="white"/>
<path d="M28.4425 22.2935H28.481V22.233L28.4425 22.2935ZM28.4425 22.2935H28.481V22.233L28.4425 22.2935ZM28.4425 22.2935H28.481V22.233L28.4425 22.2935ZM28.4425 22.2935H28.481V22.233L28.4425 22.2935ZM28.4425 22.2935H28.481V22.233L28.4425 22.2935ZM28.4425 22.2935H28.481V22.233L28.4425 22.2935ZM28.4425 22.2935H28.481V22.233L28.4425 22.2935ZM28.4425 22.2935H28.481V22.233L28.4425 22.2935ZM28.4425 22.2935H28.481V22.233L28.4425 22.2935ZM28.4425 22.2935H28.481V22.233L28.4425 22.2935ZM28.4425 22.2935H28.481V22.233L28.4425 22.2935ZM28.4425 22.2935H28.481V22.233L28.4425 22.2935ZM28.4425 22.2935H28.481V22.233L28.4425 22.2935ZM28.4425 22.2935H28.481V22.233L28.4425 22.2935ZM28.4425 22.2935H28.481V22.233L28.4425 22.2935ZM28.4425 22.2935H28.481V22.233L28.4425 22.2935ZM25.94 0.0734863C20.972 0.0734863 16.1156 1.54666 11.9849 4.30672C7.85418 7.06677 4.63468 10.9897 2.73352 15.5796C0.832355 20.1694 0.334926 25.2199 1.30413 30.0924C2.27333 34.9649 4.66564 39.4406 8.17852 42.9535C11.6914 46.4663 16.1671 48.8586 21.0396 49.8278C25.9121 50.7971 30.9626 50.2996 35.5524 48.3985C40.1422 46.4973 44.0652 43.2778 46.8253 39.1471C49.5853 35.0164 51.0585 30.16 51.0585 25.192C51.0512 18.5324 48.4025 12.1476 43.6934 7.43856C38.9843 2.72951 32.5996 0.0807654 25.94 0.0734863ZM19.659 36.5C19.6575 36.6114 19.6123 36.7177 19.533 36.7959C19.4538 36.8741 19.3469 36.918 19.2355 36.918H14.3955C14.2846 36.918 14.1783 36.874 14.0999 36.7956C14.0215 36.7172 13.9775 36.6109 13.9775 36.5V20.2365C13.9768 20.1811 13.987 20.1262 14.0077 20.0748C14.0284 20.0235 14.0591 19.9768 14.098 19.9374C14.1368 19.898 14.1832 19.8667 14.2342 19.8453C14.2853 19.824 14.3401 19.813 14.3955 19.813H19.2355C19.2911 19.813 19.3462 19.8239 19.3976 19.8452C19.4489 19.8665 19.4956 19.8977 19.5349 19.937C19.5743 19.9764 19.6055 20.023 19.6267 20.0744C19.648 20.1258 19.659 20.1809 19.659 20.2365V36.5ZM16.645 17.6405C16.0434 17.6405 15.4554 17.4621 14.9552 17.1279C14.455 16.7937 14.0652 16.3187 13.835 15.7629C13.6048 15.2072 13.5446 14.5956 13.6619 14.0056C13.7793 13.4156 14.069 12.8737 14.4943 12.4483C14.9197 12.023 15.4616 11.7333 16.0516 11.6159C16.6416 11.4986 17.2532 11.5588 17.8089 11.789C18.3647 12.0192 18.8397 12.409 19.1739 12.9092C19.5081 13.4094 19.6865 13.9974 19.6865 14.599C19.6872 14.9986 19.609 15.3944 19.4564 15.7638C19.3038 16.1331 19.0798 16.4687 18.7973 16.7513C18.5147 17.0338 18.1791 17.2579 17.8098 17.4104C17.4404 17.563 17.0446 17.6412 16.645 17.6405ZM40.141 36.5C40.1395 36.6114 40.0943 36.7177 40.015 36.7959C39.9357 36.8741 39.8289 36.918 39.7175 36.918H34.8775C34.8226 36.918 34.7682 36.9072 34.7175 36.8862C34.6668 36.8652 34.6207 36.8344 34.5819 36.7956C34.5431 36.7567 34.5123 36.7107 34.4913 36.66C34.4703 36.6092 34.4595 36.5549 34.4595 36.5V27.7605C34.4595 25.4615 33.64 23.9105 31.583 23.9105C30.942 23.9141 30.3178 24.1158 29.796 24.488C29.2741 24.8602 28.8801 25.3846 28.668 25.9895C28.523 26.4365 28.4596 26.906 28.481 27.3755V36.5C28.481 36.6123 28.4364 36.72 28.3569 36.7995C28.2775 36.8789 28.1698 36.9235 28.0575 36.9235H23.2175C23.1621 36.9235 23.1073 36.9125 23.0562 36.8912C23.0052 36.8698 22.9588 36.8385 22.92 36.7991C22.8811 36.7597 22.8504 36.713 22.8297 36.6616C22.809 36.6103 22.7988 36.5553 22.7995 36.5C22.7995 34.179 22.86 22.9095 22.7995 20.2585C22.7988 20.2031 22.809 20.1482 22.8297 20.0968C22.8504 20.0455 22.8811 19.9988 22.92 19.9594C22.9588 19.92 23.0052 19.8887 23.0562 19.8673C23.1073 19.846 23.1621 19.835 23.2175 19.835H28.0465C28.1023 19.8342 28.1577 19.8447 28.2094 19.8657C28.2611 19.8867 28.3081 19.9179 28.3476 19.9574C28.3871 19.9969 28.4182 20.0438 28.4393 20.0956C28.4603 20.1473 28.4707 20.2027 28.47 20.2585V22.255C28.9844 21.3619 29.7337 20.6268 30.6364 20.1294C31.539 19.632 32.5607 19.3913 33.5905 19.4335C37.325 19.4335 40.13 21.8755 40.13 27.1335L40.141 36.5ZM28.481 22.31V22.2495L28.4425 22.31H28.481ZM28.4425 22.31H28.481V22.2495L28.4425 22.31ZM28.4425 22.31H28.481V22.2495L28.4425 22.31ZM28.4425 22.31H28.481V22.2495L28.4425 22.31ZM28.4425 22.31H28.481V22.2495L28.4425 22.31ZM28.4425 22.31H28.481V22.2495L28.4425 22.31ZM28.4425 22.31H28.481V22.2495L28.4425 22.31ZM28.4425 22.31H28.481V22.2495L28.4425 22.31ZM28.4425 22.31H28.481V22.2495L28.4425 22.31ZM28.4425 22.31H28.481V22.2495L28.4425 22.31ZM28.4425 22.31H28.481V22.2495L28.4425 22.31ZM28.4425 22.31H28.481V22.2495L28.4425 22.31ZM28.4425 22.31H28.481V22.2495L28.4425 22.31ZM28.4425 22.31H28.481V22.2495L28.4425 22.31ZM28.4425 22.31H28.481V22.2495L28.4425 22.31Z" fill="#964CDB"/>
</svg>
