<svg width="50" height="50" viewBox="0 0 50 50" fill="none" xmlns="http://www.w3.org/2000/svg">
<circle cx="25" cy="25" r="25" fill="#964CDB"/>
<path d="M35.7216 15.0258L25.1392 15.0515L14.5567 15H14.5515C13.1289 15 12 16.3351 12 18.0052V31.9948C12 33.6649 13.1289 35 14.5515 35H35.7371C37.1598 35 38.2887 33.6649 38.2887 31.9948V18.0052C38.2887 16.3351 37.1701 15.0258 35.7216 15.0258ZM34.8918 17.0876L25.4381 25.732L25.4021 25.7629L25.3711 25.799C25.2577 25.9227 25.1237 25.9381 25.0515 25.9381C24.9794 25.9381 24.8454 25.9175 24.7371 25.7887L24.7062 25.7526L15.6701 17.0464L25.1392 17.1082L34.8918 17.0876ZM35.7371 32.9381H14.5515C14.3711 32.9381 14.0619 32.5979 14.0619 31.9948V18.3351L23.2165 27.1804C23.6804 27.6959 24.3351 27.9948 25.0309 28.0052H25.0619C25.7474 28.0052 26.3866 27.7217 26.8557 27.2268L36.2371 18.6392V31.9948C36.2268 32.5979 35.9175 32.9381 35.7371 32.9381Z" fill="url(#paint0_linear)"/>
<defs>
<linearGradient id="paint0_linear" x1="13.134" y1="25" x2="37.6857" y2="25" gradientUnits="userSpaceOnUse">
<stop stop-color="white"/>
<stop offset="0.35" stop-color="white"/>
<stop offset="0.655" stop-color="white"/>
<stop offset="1" stop-color="white"/>
</linearGradient>
</defs>
</svg>
