<svg width="55" height="55" viewBox="0 0 55 55" fill="none" xmlns="http://www.w3.org/2000/svg">
<circle cx="27.0187" cy="27.1184" r="27.0187" fill="#964CDB"/>
<path d="M25.1277 37.3723C24.606 37.894 23.7184 37.6905 23.4761 36.9937L20.6789 28.952C20.4043 28.1623 21.1623 27.4043 21.952 27.679L29.9937 30.4761C30.6905 30.7185 30.894 31.6061 30.3723 32.1277L25.1277 37.3723Z" fill="black"/>
<path d="M40.7891 14.6246C41.5302 14.354 42.2782 15.0082 42.1087 15.7788L37.3174 37.5573C37.1654 38.2483 36.3635 38.5672 35.7784 38.1693L24.6007 30.5685C24.5338 30.523 24.4616 30.4858 24.3858 30.4577L13.5502 26.4445C12.6777 26.1214 12.6806 24.8864 13.5545 24.5674L40.7891 14.6246Z" fill="white"/>
<path d="M36.5 18.4999L24.5 30.5L20.5 29L36.5 18.4999Z" fill="black"/>
<path d="M24 37.5L20.4999 28.9995L24.4999 30.4995L24 37.5Z" fill="black"/>
</svg>
