<svg width="66" height="66" viewBox="0 0 66 66" fill="none" xmlns="http://www.w3.org/2000/svg">
<circle cx="33" cy="33" r="33" fill="#964CDB"/>
<path fill-rule="evenodd" clip-rule="evenodd" d="M42.5064 21.2905C39.9366 19.0024 36.6552 17.7719 33.278 17.83C29.9009 17.8881 26.6601 19.2307 24.1639 21.606C21.6677 23.9812 20.0877 27.2257 19.7204 30.7307C19.353 34.2356 20.2237 37.76 22.1688 40.6425C22.4785 41.1013 22.5368 41.6954 22.3226 42.2103L20.642 46.2506L26.4596 45.1683C26.7819 45.1084 27.114 45.157 27.408 45.3073C30.4415 46.8578 33.9128 47.1993 37.1705 46.2678C40.4281 45.3363 43.2481 43.1958 45.1012 40.248C46.9544 37.3002 47.7133 33.7478 47.2355 30.2574C46.7578 26.767 45.0762 23.5785 42.5064 21.2905ZM17.9039 49.9601C18.0626 49.9796 18.2214 49.9728 18.3748 49.9418L26.5176 48.4269C30.1127 50.1253 34.1688 50.4633 37.985 49.3721C41.9669 48.2335 45.4139 45.6171 47.679 42.0139C49.9442 38.4108 50.8718 34.0685 50.2878 29.8021C49.7039 25.5357 47.6485 21.6384 44.5073 18.8416C41.3662 16.0448 37.3552 14.5408 33.2272 14.6118C29.0992 14.6828 25.1379 16.3239 22.0868 19.2273C19.0356 22.1306 17.1043 26.0965 16.6553 30.3806C16.2383 34.3597 17.1266 38.3593 19.1602 41.7317L16.6777 47.7C16.6133 47.8487 16.5703 48.0083 16.5517 48.174C16.5293 48.373 16.5433 48.572 16.59 48.7613C16.6447 48.9851 16.743 49.1872 16.8734 49.3591C17.1245 49.6904 17.4949 49.9103 17.9039 49.9601Z" fill="white"/>
<path d="M28.3562 28.7299C28.3562 28.9669 28.4464 29.1942 28.607 29.3618C28.7675 29.5294 28.9853 29.6236 29.2123 29.6236C29.4394 29.6236 29.6571 29.5294 29.8177 29.3618C29.9782 29.1942 30.0684 28.9669 30.0684 28.7299V26.9425C30.0684 26.7055 29.9782 26.4782 29.8177 26.3106C29.6571 26.143 29.4394 26.0488 29.2123 26.0488C28.9853 26.0488 28.7675 26.143 28.607 26.3106C28.4464 26.4782 28.3562 26.7055 28.3562 26.9425V28.7299ZM28.3562 28.7299C28.3562 31.1001 29.2582 33.3732 30.8637 35.0492C32.4692 36.7252 34.6468 37.6668 36.9174 37.6668H38.6296C38.8566 37.6668 39.0744 37.5726 39.235 37.405C39.3955 37.2374 39.4857 37.0101 39.4857 36.7731C39.4857 36.5361 39.3955 36.3088 39.235 36.1412C39.0744 35.9736 38.8566 35.8794 38.6296 35.8794H36.9174C36.6903 35.8794 36.4725 35.9736 36.312 36.1412C36.1514 36.3088 36.0612 36.5361 36.0612 36.7731C36.0612 37.0101 36.1514 37.2374 36.312 37.405C36.4725 37.5726 36.6903 37.6668 36.9174 37.6668" stroke="white" stroke-width="3.08333" stroke-linecap="round" stroke-linejoin="round"/>
</svg>
