<svg width="55" height="55" viewBox="0 0 55 55" fill="none" xmlns="http://www.w3.org/2000/svg">
<circle cx="27.0187" cy="27.0187" r="27.0187" fill="#964CDB"/>
<g clip-path="url(#clip0_101_11)">
<path d="M27.0956 15.7482H27.2625C28.8037 15.7538 36.6131 15.81 38.7187 16.3763C39.3553 16.5491 39.9353 16.886 40.4009 17.3532C40.8665 17.8204 41.2013 18.4016 41.3719 19.0388C41.5612 19.7513 41.6944 20.6944 41.7844 21.6675L41.8031 21.8625L41.8444 22.35L41.8594 22.545C41.9812 24.2588 41.9962 25.8638 41.9981 26.2144V26.355C41.9962 26.7188 41.9794 28.4325 41.8444 30.2175L41.8294 30.4144L41.8125 30.6094C41.7187 31.6819 41.58 32.7469 41.3719 33.5307C41.2018 34.1681 40.8672 34.7496 40.4015 35.2169C39.9359 35.6842 39.3556 36.0209 38.7187 36.1932C36.5437 36.7782 28.2769 36.8194 27.1312 36.8213H26.865C26.2856 36.8213 23.8894 36.81 21.3769 36.7238L21.0581 36.7125L20.895 36.705L20.5744 36.6919L20.2537 36.6788C18.1725 36.5869 16.1906 36.4388 15.2775 36.1913C14.6409 36.0192 14.0607 35.6828 13.5951 35.2158C13.1295 34.7489 12.7947 34.1677 12.6244 33.5307C12.4162 32.7488 12.2775 31.6819 12.1837 30.6094L12.1687 30.4125L12.1537 30.2175C12.0612 28.947 12.0099 27.6739 12 26.4L12 26.1694C12.0037 25.7663 12.0188 24.3732 12.12 22.8357L12.1331 22.6425L12.1387 22.545L12.1537 22.35L12.195 21.8625L12.2137 21.6675C12.3037 20.6944 12.4369 19.7494 12.6262 19.0388C12.7963 18.4014 13.1309 17.8199 13.5966 17.3526C14.0622 16.8853 14.6426 16.5486 15.2794 16.3763C16.1925 16.1325 18.1744 15.9825 20.2556 15.8888L20.5744 15.8757L20.8969 15.8644L21.0581 15.8588L21.3787 15.8457C23.1632 15.7882 24.9484 15.7564 26.7337 15.75H27.0956V15.7482ZM24 21.7669V30.8007L31.7944 26.2857L24 21.7669Z" fill="white"/>
</g>
<defs>
<clipPath id="clip0_101_11">
<rect width="30" height="30" fill="white" transform="translate(12 12)"/>
</clipPath>
</defs>
</svg>
