<svg width="61" height="65" viewBox="0 0 61 65" fill="none" xmlns="http://www.w3.org/2000/svg">
<path fill-rule="evenodd" clip-rule="evenodd" d="M43.9906 0.0877926C43.5892 0.253803 43.1792 0.841763 43.1792 1.25114C43.1792 1.47138 43.3242 1.77533 43.5496 2.02784L43.9199 2.44268L46.5633 2.50619L49.2067 2.5697L47.5086 4.47495C44.0696 8.33333 41.6144 10.659 38.5996 12.9134C31.8139 17.9881 23.9673 21.1997 15.4896 22.3725C14.2789 22.5399 11.4457 22.7629 9.23074 22.8652C8.49367 22.8991 8.32067 22.9541 8.02688 23.2479C7.54968 23.7251 7.54866 24.4719 8.02459 24.9479C8.46814 25.3914 9.19162 25.4465 12.0218 25.2524C20.3137 24.6839 27.9122 22.4146 34.7961 18.4511C40.1716 15.3561 44.337 11.8772 49.0703 6.52969L50.7367 4.64693L50.8002 7.00347C50.8627 9.32241 50.8689 9.36521 51.1881 9.68402C51.3665 9.86223 51.7159 10.0411 51.9645 10.0815C52.3447 10.1431 52.4848 10.0938 52.8468 9.7704L53.277 9.38592V5.05986V0.733672L52.9251 0.381582L52.573 0.029365L48.416 0.00307252C46.1296 -0.0114074 44.1382 0.0266976 43.9906 0.0877926ZM49.0713 15.3323C48.9238 15.3919 48.6808 15.5961 48.5315 15.786L48.2599 16.1313V39.2946V62.458H45.7208H43.1818L43.1487 44.2842L43.1157 26.1104L42.6955 25.735L42.2752 25.3595L38.017 25.3961L33.7589 25.4327L33.3884 25.8475L33.0179 26.2624V44.3602V62.458H30.4792H27.9404L27.9071 48.0947L27.8737 33.7314L27.4536 33.356L27.0333 32.9805L22.775 33.0171L18.5169 33.0537L18.1464 33.4685L17.7759 33.8834V48.1707V62.458H15.2356H12.6952V51.9664V41.4749L12.2584 41.0381L11.8218 40.6014L7.56162 40.638L3.30148 40.6747L2.94952 41.0268L2.59743 41.379L2.56352 51.9043L2.5296 62.4296L1.62778 62.4805C0.801541 62.5272 0.695229 62.5659 0.359778 62.9413C-0.121361 63.4799 -0.119964 63.9782 0.364223 64.52L0.734858 64.9348L30.4007 64.9674L60.0666 65L60.4794 64.6311C60.8212 64.3257 60.8923 64.1703 60.8923 63.7282C60.8923 63.2862 60.8212 63.1307 60.4803 62.8261C60.1157 62.5003 59.9739 62.458 59.2458 62.458H58.4233L58.3905 39.2036L58.3577 15.9491L57.9429 15.5785L57.528 15.2078L53.4338 15.2158C51.1819 15.2203 49.2189 15.2728 49.0713 15.3323ZM55.8809 40.1031V62.458H53.3406H50.8002V40.1031V17.7482H53.3406H55.8809V40.1031ZM40.6389 45.1838V62.458H38.0986H35.5582V45.1838V27.9095H38.0986H40.6389V45.1838ZM25.3969 48.9943V62.458H22.8566H20.3162V48.9943V35.5305H22.8566H25.3969V48.9943ZM10.1549 52.8048V62.458H7.61458H5.07425V52.8048V43.1515H7.61458H10.1549V52.8048Z" fill="white"/>
</svg>
