<svg width="49" height="65" viewBox="0 0 49 65" fill="none" xmlns="http://www.w3.org/2000/svg">
<path fill-rule="evenodd" clip-rule="evenodd" d="M21.6638 0.210982C21.1825 0.419489 20.5846 0.936245 20.3546 1.34258C20.2755 1.48235 20.1803 2.13989 20.1432 2.80378L20.0756 4.01086L17.0897 4.07439C13.7905 4.14453 13.587 4.19014 12.9792 4.99545C12.6453 5.43801 12.3903 6.20672 12.3892 6.77443L12.3884 7.12385L8.03659 7.12525C3.36342 7.12664 3.00028 7.1673 2.0148 7.79867C1.27658 8.27159 0.751818 8.88224 0.356278 9.72859L0 10.491V36.0937V61.6964L0.334805 62.4105C0.805819 63.4149 1.47772 64.1038 2.45697 64.5858L3.29824 65H24.078H44.8578L45.699 64.5858C46.6783 64.1038 47.3502 63.4149 47.8212 62.4105L48.156 61.6964L48.1911 50.2635C48.2162 42.039 48.1861 38.734 48.0838 38.4869C47.8926 38.0254 47.3706 37.8504 46.8447 38.0715C46.6225 38.165 46.4276 38.2586 46.4116 38.2794C46.3956 38.3002 46.3526 43.5298 46.3163 49.9006L46.2501 61.4841L45.8689 62.0253C45.6593 62.3228 45.2358 62.6994 44.9278 62.862L44.3677 63.1576H24.078H3.78831L3.22823 62.862C2.92024 62.6994 2.49674 62.3228 2.28709 62.0251L1.90591 61.484L1.87287 36.3868C1.85051 19.3697 1.88228 11.1324 1.97147 10.8009C2.14517 10.1559 2.66408 9.55668 3.29837 9.26863C3.76341 9.05733 4.2141 9.03509 8.08373 9.03255L12.3556 9.02976L12.4425 9.68488C12.6128 10.9679 13.305 11.7177 14.5448 11.9616L15.3108 12.1123V12.9216V13.731L10.3872 13.7313C4.75245 13.7314 4.80239 13.7231 4.2869 14.7455L3.99962 15.3152L4.03278 37.6164L4.06594 59.9176L4.37076 60.3449C4.9419 61.1457 4.68613 61.1247 13.8513 61.1247H22.1837L22.4955 60.8127C22.8697 60.4387 22.8948 59.9901 22.5646 59.5823L22.3216 59.2823L14.115 59.2478L5.90832 59.2133V37.4252V15.6369H10.6096H15.3108V16.6981C15.3108 17.8961 15.5288 18.3743 16.3174 18.9057L16.7461 19.1946H24.078H31.4099L31.8386 18.9057C32.6272 18.3743 32.8452 17.8961 32.8452 16.6981V15.6369H37.5464H42.2477V37.4252V59.2133L34.041 59.2478L25.8344 59.2823L25.5914 59.5823C25.2612 59.9901 25.2863 60.4387 25.6605 60.8127L25.9723 61.1247L34.3324 61.1244C43.8235 61.1243 43.3315 61.1764 43.8677 60.113L44.1536 59.546V37.4278V15.3096L43.8677 14.7427C43.3539 13.7235 43.4011 13.7314 37.7688 13.7313L32.8452 13.731V12.9216V12.1123L33.6112 11.9616C34.851 11.7177 35.5432 10.9679 35.7135 9.68488L35.8004 9.02976L40.0723 9.03255C43.9419 9.03509 44.3926 9.05733 44.8576 9.26863C45.4843 9.55325 46.0054 10.1488 46.181 10.7808C46.2669 11.09 46.3125 15.3167 46.3129 23.0161L46.3136 34.7787L46.6076 35.0551C47.0255 35.4476 47.6231 35.42 47.9593 34.9926L48.2256 34.654L48.1908 22.5724L48.156 10.491L47.7997 9.72859C47.4042 8.88224 46.8794 8.27159 46.1412 7.79867C45.1557 7.1673 44.7926 7.12664 40.1194 7.12525L35.7676 7.12385L35.7668 6.77443C35.7657 6.20672 35.5107 5.43801 35.1768 4.99545C34.569 4.19014 34.3655 4.14453 31.0663 4.07439L28.0804 4.01086L28.0128 2.80378C27.9757 2.13989 27.8805 1.48235 27.8014 1.34258C27.5642 0.923539 26.9669 0.415677 26.4645 0.205773C25.8012 -0.0713467 22.3068 -0.0675349 21.6638 0.210982ZM25.9585 2.06683C26.0492 2.15755 26.111 2.5949 26.111 3.14685V4.07439H24.078H22.045V3.14685C22.045 2.5949 22.1068 2.15755 22.1975 2.06683C22.4096 1.85477 25.7464 1.85477 25.9585 2.06683ZM33.7302 6.22604C33.9388 6.61586 33.8992 9.56519 33.6814 9.86315C33.5057 10.1034 33.259 10.1098 24.078 10.1098C14.897 10.1098 14.6504 10.1034 14.4746 9.86315C14.2568 9.56519 14.2172 6.61586 14.4258 6.22604C14.5542 5.9864 14.7953 5.9803 24.078 5.9803C33.3607 5.9803 33.6018 5.9864 33.7302 6.22604ZM30.9393 12.9051V13.731H24.078H17.2167V12.9051V12.0792H24.078H30.9393V12.9051ZM30.9393 16.4628V17.2887H24.078H17.2167V16.4628V15.6369H24.078H30.9393V16.4628ZM17.3438 22.1907C17.0992 22.2955 16.1254 23.152 15.1799 24.0938L13.4608 25.8061L12.9564 25.285C12.2864 24.5927 11.6451 24.277 10.9089 24.277C9.64073 24.277 8.67672 25.1464 8.50239 26.4474C8.44026 26.9111 8.48994 27.1246 8.78777 27.6743C9.19564 28.4271 11.801 31.1522 12.4175 31.4711C12.9183 31.7299 14.014 31.7332 14.5026 31.4772C15.0157 31.2082 20.1863 25.9561 20.4536 25.4325C20.796 24.7614 20.6793 23.5565 20.2123 22.9443C19.5616 22.0911 18.33 21.7676 17.3438 22.1907ZM18.7155 24.2815C18.7467 24.5486 18.3374 25.0319 16.3184 27.112C14.9793 28.4916 13.7719 29.6803 13.635 29.7535C13.4185 29.8694 13.2078 29.711 12.0156 28.5361C10.4711 27.0141 10.2309 26.6767 10.4789 26.3779C10.7814 26.0136 11.1254 26.172 11.9576 27.059C12.9491 28.1161 13.3454 28.3188 13.8792 28.0429C14.0846 27.9366 15.1009 26.9573 16.1376 25.8664C17.7309 24.19 18.0734 23.8891 18.3502 23.9213C18.5937 23.9496 18.6876 24.0421 18.7155 24.2815ZM23.4427 26.183C23.1003 26.5254 23.107 27.2133 23.456 27.5292C23.7126 27.7613 24.0243 27.7712 31.0907 27.7712H38.4578L38.7738 27.4039C39.1383 26.9801 39.0999 26.5146 38.6705 26.1512C38.4268 25.945 37.8726 25.9288 31.0522 25.9288C23.8662 25.9288 23.691 25.9347 23.4427 26.183ZM18.0426 33.2297C17.9727 33.2553 17.744 33.3142 17.5344 33.3609C17.2731 33.4189 16.5718 34.0222 15.3055 35.2778L13.4579 37.1102L12.8913 36.5235C11.9048 35.5018 10.9296 35.232 9.90552 35.6973C8.6677 36.2595 8.11638 37.8238 8.74724 38.9834C9.08509 39.6046 11.9413 42.4865 12.4464 42.716C13.1191 43.0217 13.8346 43.0157 14.4886 42.6991C15.0871 42.4094 20.0879 37.3156 20.4372 36.6401C20.5559 36.4103 20.6474 35.9375 20.6474 35.5537C20.6474 34.3976 19.7959 33.4333 18.6144 33.2516C18.3698 33.214 18.1125 33.2042 18.0426 33.2297ZM18.6085 35.2608C18.6924 35.3618 18.7422 35.5572 18.7195 35.6951C18.6604 36.0514 13.7081 41.0491 13.4141 41.0491C13.1786 41.0491 10.3554 38.1276 10.3554 37.884C10.3554 37.7131 10.726 37.3643 10.9075 37.3643C10.9915 37.3643 11.515 37.8217 12.0708 38.3808C13.5151 39.8336 13.3547 39.8801 16.0133 37.2372C17.2083 36.0492 18.2469 35.0772 18.3211 35.0772C18.3955 35.0772 18.5248 35.1598 18.6085 35.2608ZM23.4427 37.7455C23.1003 38.0879 23.107 38.7758 23.4559 39.0917C23.7111 39.3226 24.0488 39.3355 30.7937 39.3722C35.4994 39.3978 38.0183 39.3658 38.3253 39.2764C39.1137 39.0468 39.2737 37.9988 38.5774 37.6262C38.4082 37.5356 35.9239 37.4914 31.0112 37.4914C23.8662 37.4914 23.691 37.4972 23.4427 37.7455ZM17.2803 44.7214C16.9822 44.86 16.095 45.6454 15.1346 46.6213L13.497 48.2852L12.8165 47.6632C12.0221 46.9371 11.4525 46.7146 10.5986 46.7965C9.05511 46.9449 8.06429 48.5911 8.68041 49.984C8.98446 50.6712 11.5267 53.4123 12.2832 53.8686C12.8833 54.2305 13.9055 54.2795 14.4878 53.9744C15.0113 53.7002 20.1818 48.4548 20.4536 47.9223C20.796 47.2511 20.6793 46.0462 20.2123 45.434C19.5376 44.5495 18.2985 44.2483 17.2803 44.7214ZM18.7159 46.7751C18.7476 47.0471 18.3518 47.5142 16.3171 49.6063C14.977 50.9844 13.7691 52.1714 13.633 52.2444C13.418 52.3594 13.195 52.1889 11.9351 50.9457C10.4326 49.4634 10.2286 49.1691 10.4876 48.8572C10.7774 48.5079 11.1145 48.6751 12.0126 49.614C12.9524 50.5964 13.3457 50.8052 13.8205 50.5738C13.9763 50.4979 14.9957 49.5194 16.0859 48.3994C17.7115 46.7292 18.1228 46.3706 18.373 46.4061C18.5914 46.4369 18.6887 46.5415 18.7159 46.7751ZM23.4427 49.308C23.1003 49.6504 23.107 50.3383 23.4559 50.6542C23.7111 50.8851 24.0488 50.898 30.7937 50.9348C35.4994 50.9603 38.0183 50.9283 38.3253 50.839C39.1137 50.6094 39.2737 49.5614 38.5774 49.1887C38.4082 49.0981 35.9239 49.0539 31.0112 49.0539C23.8662 49.0539 23.691 49.0597 23.4427 49.308Z" fill="white"/>
</svg>
