<svg width="65" height="64" viewBox="0 0 65 64" fill="none" xmlns="http://www.w3.org/2000/svg">
<path fill-rule="evenodd" clip-rule="evenodd" d="M19.8982 0.389458C19.5476 0.618143 18.9402 1.16627 18.5484 1.60735C18.1566 2.04844 17.5424 2.71348 17.1834 3.08511C16.3686 3.92901 16.3545 4.2451 17.0961 5.03778C17.407 5.37002 17.6613 5.70156 17.6613 5.7745C17.6613 5.84743 16.7597 6.74867 15.6578 7.777C13.6659 9.63613 12.8574 10.6178 12.8574 11.1776C12.8574 11.9134 13.6618 12.0069 14.5484 11.3742C15.2458 10.8764 15.8793 10.2608 17.4369 8.56647C18.0518 7.89767 18.6051 7.35052 18.6666 7.35052C18.8231 7.35052 19.3185 8.492 19.5639 9.41788L19.7697 10.1941L17.9383 12.0292C15.9842 13.9874 15.8139 14.2995 16.3897 14.8667C16.9285 15.3975 17.3174 15.2386 18.6875 13.9272L19.9598 12.7093L19.8655 14.2403C19.7774 15.6726 19.3237 18.7038 19.1756 18.8497C19.0305 18.9926 15.9043 19.455 14.4619 19.5469L12.9309 19.6444L13.6587 18.8214C14.0589 18.3688 14.6146 17.7825 14.8935 17.5188C15.468 16.9752 15.539 16.534 15.118 16.1194C14.5342 15.5442 14.2105 15.7153 12.2315 17.6458L10.3813 19.4507L9.57439 19.2432C9.13045 19.1289 8.46851 18.9094 8.10342 18.7552L7.43949 18.4748L9.79523 16.1395C11.0909 14.8551 12.151 13.7072 12.151 13.5886C12.151 13.4702 12.0191 13.2081 11.8581 13.0064C11.2767 12.2781 11.0235 12.4248 8.40677 15.0059C7.0874 16.3073 5.9534 17.3721 5.88671 17.3721C5.82017 17.3721 5.47669 17.1215 5.12361 16.8153C4.11861 15.9438 4.02875 15.9799 1.87393 18.1174C0.559227 19.4216 0 20.0719 0 20.2967C0 20.7515 2.09449 22.7472 3.33191 23.4714C4.56848 24.195 5.68354 24.6294 7.37436 25.0462C8.5619 25.3387 8.9975 25.3695 11.8684 25.3637C14.1229 25.3589 15.4566 25.2906 16.4545 25.1286C17.2285 25.0029 17.8799 24.9178 17.9019 24.9397C17.9241 24.9615 17.8123 25.5382 17.6535 26.2212C17.2248 28.0647 17.1259 31.3744 17.4435 33.2456C18.6273 40.2196 23.7006 45.378 30.7306 46.7557C32.3388 47.0709 36.4743 47.0031 38.2126 46.6331C38.9862 46.4684 39.6378 46.3521 39.6606 46.3746C39.6835 46.3972 39.5957 47.0681 39.4656 47.8656C39.2994 48.8842 39.2271 50.2062 39.2227 52.3082C39.2174 54.9018 39.2572 55.4711 39.5218 56.5786C39.8972 58.1505 40.4169 59.4537 41.1739 60.7223C41.8613 61.8743 43.9388 64 44.3774 64C44.5707 64 45.3445 63.3528 46.5694 62.1665C48.7605 60.0444 48.8002 59.9473 47.8974 58.9196C47.5865 58.5658 47.3322 58.2325 47.3322 58.1789C47.3322 58.1253 48.3854 57.0485 49.6725 55.7864C50.9598 54.5241 52.0745 53.3823 52.1495 53.249C52.3329 52.9233 51.966 52.2304 51.5537 52.1242C51.3826 52.0802 51.1099 52.1103 50.9475 52.1912C50.7853 52.2719 49.654 53.3141 48.4339 54.5072L46.215 56.6763L45.9148 55.9886C45.7496 55.6103 45.5182 54.9318 45.4004 54.4807L45.1863 53.6606L47.0364 51.8341C48.2115 50.6741 48.8864 49.9032 48.8864 49.7209C48.8864 49.3443 48.3193 48.8285 47.9054 48.8285C47.6854 48.8285 47.1618 49.2273 46.3059 50.0464L45.0334 51.2643L45.1275 49.6636C45.2122 48.225 45.6425 45.2955 45.7903 45.1519C46.0144 44.9342 50.029 44.3745 51.3659 44.3745H52.0198L50.8091 45.662C49.5262 47.026 49.3811 47.3672 49.8754 47.8542C50.4592 48.4293 50.7829 48.2583 52.762 46.3277L54.6122 44.5229L55.4191 44.7304C56.4289 44.9903 57.5051 45.439 57.5051 45.6003C57.5051 45.6677 56.7719 46.3705 55.8759 47.1622C53.6754 49.1062 52.9838 49.9526 52.9838 50.7014C52.9838 51.1239 53.4872 51.4142 53.9997 51.2875C54.1814 51.2426 55.3783 50.17 56.6593 48.904C57.9404 47.6379 59.0425 46.6019 59.1083 46.6018C59.174 46.6017 59.5168 46.852 59.8699 47.1583C60.8698 48.0253 60.9587 47.9899 63.1156 45.8651C65.3464 43.6674 65.387 43.5559 64.3224 42.5413C62.1201 40.4423 59.1059 39.0781 55.7516 38.6622C54.0489 38.4511 50.3838 38.5573 48.4781 38.8731C47.7485 38.9939 47.1309 39.0727 47.1059 39.0481C47.0809 39.0233 47.1971 38.3797 47.3643 37.6176C47.7398 35.9052 47.8086 31.8312 47.4888 30.2469C46.1348 23.5418 41.0562 18.5384 34.2629 17.2166C32.6513 16.903 28.5146 16.9715 26.7808 17.3405C26.0073 17.5051 25.354 17.6197 25.3288 17.595C25.3038 17.5704 25.3859 16.962 25.5111 16.2432C25.8733 14.1642 25.944 10.1898 25.6495 8.45512C25.1261 5.37113 23.8809 2.8542 21.7804 0.634706C21.0419 -0.145859 20.7723 -0.180934 19.8982 0.389458ZM22.1171 4.03507C23.8824 6.90526 24.4332 10.8636 23.7307 15.6322C23.5729 16.7039 23.4126 17.6822 23.3748 17.8059C23.3276 17.9598 22.9719 18.0964 22.2497 18.2379C21.0178 18.4794 21.0955 18.6245 21.4313 16.7094C21.5958 15.7717 21.6691 14.5602 21.6695 12.7789C21.6698 10.5674 21.6266 10.0466 21.3625 9.09037C20.9918 7.74776 19.9945 5.72829 19.2316 4.77555L18.6745 4.07961L19.6867 3.0666L20.699 2.05359L21.0792 2.50985C21.2885 2.7608 21.7554 3.44714 22.1171 4.03507ZM7.1466 20.2594C9.04865 21.1212 10.0902 21.313 12.9281 21.3239C14.7637 21.3308 15.9036 21.2631 17.0255 21.0802C18.9979 20.7588 23.5128 19.856 25.3859 19.4085C29.1856 18.5007 32.913 18.5703 36.0608 19.6075C39.6638 20.7948 42.6592 23.3381 44.3291 26.628C45.8046 29.5348 46.2871 33.361 45.6397 37.0186C45.1897 39.5601 45.2863 39.3942 44.0902 39.6819C43.5218 39.8187 43.0294 39.9038 42.996 39.8709C42.9628 39.8381 43.0336 39.4443 43.1536 38.9959C44.2274 34.9809 43.3974 30.0994 41.0519 26.6351C39.2973 24.044 36.9834 22.3387 34.1096 21.5187C33.1194 21.2363 32.6917 21.2003 30.3774 21.2045C27.5524 21.2096 26.5058 21.337 22.2532 22.1927C16.2273 23.4053 15.4403 23.5221 12.7868 23.5972C9.91024 23.6787 8.83459 23.559 6.88338 22.9401C5.47824 22.4944 3.55288 21.4909 2.71249 20.7661L2.19 20.3156L3.15854 19.3475L4.12709 18.3795L5.13858 19.0937C5.69498 19.4865 6.59853 20.0111 7.1466 20.2594ZM29.295 24.0879C27.9343 25.4501 27.7563 25.7354 27.9917 26.1757C28.2075 26.5793 28.3886 26.6929 28.8212 26.6956C29.0839 26.6971 29.6263 26.2517 30.9725 24.9284L32.7725 23.1591L33.5369 23.317C34.3936 23.494 35.7464 24.0308 35.7464 24.1937C35.7464 24.252 34.9231 25.0627 33.9167 25.9952C31.0684 28.6343 30.5801 29.6294 31.9652 29.9718C32.319 30.0593 32.5586 29.8647 34.9055 27.5843L37.4604 25.1016L38.464 26.116L39.4676 27.1304L37.2023 29.3151C34.7109 31.7175 34.2904 32.3151 34.6794 32.8999C34.9449 33.2992 35.1746 33.322 35.7868 33.0101C36.5139 32.6397 37.3331 31.9026 38.8041 30.2948C39.5635 29.4647 40.2604 28.7855 40.3526 28.7855C40.5555 28.7855 41.2159 30.3639 41.3445 31.1562L41.437 31.7265L39.5802 33.5738C37.758 35.3866 37.726 35.4292 37.8721 35.8423C38.0599 36.373 38.6032 36.6446 39.0395 36.426C39.2099 36.3406 39.881 35.761 40.5309 35.1379L41.7125 34.005L41.6167 35.6057C41.531 37.0368 41.0858 40.1354 40.9459 40.2731C40.7159 40.4998 34.8417 41.1634 34.6589 40.9835C34.6144 40.9395 35.073 40.4482 35.678 39.8914C36.966 38.7065 37.2921 38.1226 36.9516 37.6107C36.43 36.8265 35.537 37.3021 33.5744 39.4095C32.7383 40.3072 32.2205 40.7551 32.0202 40.7541C31.4706 40.7513 29.2471 39.9858 29.2471 39.7994C29.2471 39.7493 30.2644 38.7077 31.5077 37.4847C33.3215 35.7006 33.7684 35.186 33.7684 34.882C33.7684 34.4457 33.2827 33.9354 32.8675 33.9354C32.6906 33.9354 31.6431 34.8579 30.0623 36.406L27.5394 38.8766L26.5315 37.8587L25.5236 36.8408L28.0211 34.3776C29.6327 32.7882 30.5187 31.8131 30.5187 31.6288C30.5187 31.2183 30.0048 30.7341 29.5692 30.7341C29.2756 30.7341 28.7014 31.2179 26.8848 32.9956C25.0366 34.8042 24.5468 35.2154 24.4385 35.0486C24.2348 34.7348 23.7505 33.4327 23.6127 32.8283L23.4909 32.2947L25.3093 30.5072C27.1144 28.733 27.3549 28.3616 27.0196 27.8668C26.8911 27.6772 26.3573 27.3936 26.1289 27.3936C26.0357 27.3936 25.3554 27.9729 24.6171 28.6811L23.275 29.9686L23.3602 28.4218C23.4495 26.7984 23.8331 24.0716 24.0121 23.7861C24.1844 23.5116 27.6269 23.0012 29.5972 22.9581L30.4418 22.9396L29.295 24.0879ZM22.0362 24.2271C22.0335 24.3228 21.9405 24.7755 21.8296 25.233C21.7187 25.6906 21.5531 26.8011 21.4617 27.7006C20.8951 33.2732 23.2668 38.1907 27.8216 40.8874C31.3564 42.9803 35.8693 43.4678 40.6895 42.2776C43.0327 41.699 47.6949 40.7993 49.6354 40.5513C53.8372 40.014 57.3219 40.4405 60.119 41.8342C61.0124 42.2794 62.7328 43.468 62.7328 43.64C62.7328 43.6957 62.3129 44.1581 61.7996 44.6676L60.8664 45.5941L59.8549 44.8799C58.635 44.0186 57.2382 43.368 55.7295 42.9583C54.7665 42.6967 54.2406 42.6534 51.9948 42.6507C48.7711 42.6466 47.4897 42.8514 38.5016 44.8063C36.6138 45.2169 33.6546 45.3051 31.7383 45.0079C25.5359 44.0459 21.0631 40.1472 19.5474 34.3816C18.8871 31.8701 18.9446 28.1032 19.6871 25.2362L19.8672 24.5402L20.7777 24.3103C21.9234 24.0209 22.0424 24.013 22.0362 24.2271ZM43.5862 47.1659C43.2638 49.059 43.1598 52.0218 43.3666 53.4157C43.6917 55.6057 44.3889 57.3266 45.6315 59.007L46.3138 59.9297L45.2841 60.9373L44.2545 61.9449L43.5144 60.9194C41.5495 58.1964 40.8638 55.5414 41.0239 51.2754C41.0988 49.2788 41.4917 46.1794 41.6943 45.9869C41.7257 45.9571 42.1963 45.8452 42.7403 45.738C43.4456 45.5991 43.7409 45.5874 43.7697 45.6972C43.7919 45.782 43.7094 46.4428 43.5862 47.1659Z" fill="white"/>
</svg>
