<svg width="60" height="65" viewBox="0 0 60 65" fill="none" xmlns="http://www.w3.org/2000/svg">
<path fill-rule="evenodd" clip-rule="evenodd" d="M40.5888 0.23696C40.3334 0.367084 39.9373 0.707628 39.7086 0.993603L39.2928 1.51369L39.2251 3.99783L39.1574 6.48211L34.8244 4.36681C30.6783 2.34264 30.4506 2.24921 29.5436 2.20074C28.597 2.15023 28.5931 2.15145 26.497 3.1854C25.3427 3.75478 19.0972 6.8129 12.618 9.98111C6.1389 13.1495 0.670972 15.8967 0.467052 16.0864C-0.0182391 16.5378 -0.132927 17.1676 0.1586 17.7819C0.421692 18.3364 1.16317 18.7497 1.69978 18.6409C1.89598 18.6011 8.21939 15.5496 15.7518 11.8597L29.4474 5.15081L34.8439 7.78714C40.7563 10.6755 40.9938 10.7549 41.7564 10.0993L42.1363 9.77286L42.204 6.40953L42.2717 3.04634L44.6014 3.00938L46.931 2.97228L46.9709 8.11117C47.0093 13.0483 47.0217 13.2645 47.2886 13.6217C47.6688 14.1307 56.785 18.6936 57.6145 18.7902C58.6154 18.9066 59.265 18.3126 59.265 17.2809C59.265 16.4218 58.8958 16.1714 54.3349 13.9394L50.0607 11.8477L50.0591 6.88034C50.058 3.70401 50.0056 1.77557 49.9134 1.53184C49.8342 1.32223 49.6058 0.975594 49.4057 0.761654C48.7301 0.038998 48.4825 -0.000269444 44.6118 1.36631e-06C41.4912 0.000136771 40.9959 0.0292488 40.5888 0.23696ZM17.1511 14.2154C14.8915 14.5026 12.6688 16.0284 11.6061 18.0223C11.1146 18.9445 10.6537 20.6414 10.657 21.5169C10.6655 23.7599 11.8321 26.1211 13.5998 27.473C15.0346 28.5703 16.344 28.9996 18.2373 28.9932C20.2981 28.9864 22.1172 28.1859 23.5533 26.6541C26.2239 23.8054 26.2304 19.3987 23.5682 16.5244C21.9983 14.8296 19.472 13.9204 17.1511 14.2154ZM20.0646 17.4748C20.9755 17.9213 21.8396 18.8086 22.2727 19.7423C22.5661 20.3751 22.63 20.7082 22.6285 21.5968C22.6255 23.2555 21.9746 24.4807 20.6286 25.3611C18.3337 26.8621 15.3179 26.0713 14.0831 23.6448C12.8706 21.2618 13.9278 18.439 16.4272 17.3857C17.4902 16.9377 19.0465 16.9759 20.0646 17.4748ZM42.0937 24.0294C40.2943 24.4386 38.3947 25.9153 37.5686 27.5473C37.0016 28.6674 36.7913 29.5335 36.7894 30.7563C36.7817 35.6968 42.0464 39.0197 46.5176 36.8964C48.3551 36.0237 49.9091 34.0679 50.3145 32.1179C51.3138 27.3112 46.8733 22.9422 42.0937 24.0294ZM45.4046 27.1941C47.8375 28.4495 48.2773 31.8139 46.2469 33.6393C44.2706 35.4164 41.1984 34.7952 40.0072 32.3778C39.5883 31.5273 39.5797 29.9937 39.9892 29.0998C40.9113 27.0864 43.4587 26.19 45.4046 27.1941ZM11.1768 30.8017C9.22721 31.1992 7.57636 32.09 6.1347 33.5225C5.10549 34.5451 4.46583 35.5058 3.92909 36.8346C3.27034 38.4654 3.21212 39.0963 3.21103 44.6157C3.21009 49.7408 3.21131 49.7638 3.52924 50.4381C3.90972 51.2448 4.28412 51.6126 5.10305 51.9839C5.68664 52.2485 5.96585 52.2602 11.7108 52.2631C18.3734 52.2663 18.3509 52.2692 18.7202 51.3854C18.9753 50.7747 18.8362 50.1719 18.3448 49.7584L17.9458 49.4226H14.6438H11.3418L11.3028 44.7618L11.264 40.1011L10.9358 39.7518C10.4835 39.2707 9.7427 39.2707 9.29031 39.7518L8.96209 40.101L8.9216 44.7665L8.88112 49.4319L7.49985 49.3933L6.11859 49.3549V44.3449C6.11859 39.9293 6.14716 39.2427 6.35893 38.5579C7.17542 35.9175 9.51928 33.9245 12.2274 33.5678C13.778 33.3637 24.0737 33.4762 24.8045 33.7054C25.1024 33.7988 25.8174 34.1135 26.3933 34.4048C27.6992 35.0649 28.011 35.0722 28.6266 34.4566C29.0646 34.0186 29.0984 33.9284 29.0352 33.3679C28.946 32.5757 28.7273 32.3529 27.3964 31.6966C25.3293 30.6771 25.4216 30.6878 18.3727 30.6511C13.5032 30.6256 11.8726 30.6598 11.1768 30.8017ZM28.6696 36.0214C25.1508 36.7611 23.1695 40.7672 24.7022 44.0428C26.6389 48.1814 32.278 48.5462 34.7506 44.6927C35.5835 43.395 35.835 41.4855 35.3762 39.9442C34.9129 38.3875 33.4896 36.8655 31.9598 36.2908C31.0638 35.9542 29.5707 35.832 28.6696 36.0214ZM31.2028 39.1161C32.9904 40.0328 33.2673 42.4856 31.735 43.8309C30.6724 44.7639 29.1787 44.7626 28.0443 43.8275C26.5413 42.5887 26.7678 40.0458 28.4596 39.166C29.4246 38.6642 30.2908 38.6484 31.2028 39.1161ZM37.6291 39.1962C37.0972 39.4322 36.7292 40.1817 36.8578 40.7671C36.9047 40.9807 37.1261 41.3095 37.3497 41.4977L37.7564 41.8399L42.8576 41.8426C45.6632 41.8441 48.3853 41.9057 48.9066 41.9795C51.5334 42.3513 53.589 44.4623 53.9788 47.1884C54.0533 47.7097 54.1155 49.8881 54.1169 52.0291L54.1197 55.922H53.2395H52.3594V52.0154C52.3594 49.4499 52.3066 47.9576 52.2057 47.668C52.0096 47.1056 51.3476 46.7918 50.7772 46.9907C50.0111 47.2577 49.9935 47.3602 49.9486 51.826L49.9075 55.922H46.5906C42.9234 55.922 42.6663 55.9714 42.262 56.7531C41.9629 57.3318 42.1061 57.982 42.63 58.4228L43.0468 58.7735L49.0456 58.7357L55.0445 58.6978L55.6315 58.2908C56.0161 58.024 56.3494 57.6273 56.5984 57.1398L56.9783 56.3959L56.9342 51.3182L56.8902 46.2405L56.5105 45.1586C55.5353 42.3799 53.5129 40.3447 50.8313 39.4439L49.719 39.0702L43.8966 39.0344C39.0307 39.0045 38.001 39.031 37.6291 39.1962ZM24.9774 48.6214C22.2575 49.0199 19.8901 51.1534 18.9796 54.0263C18.67 55.0033 18.5187 61.5065 18.7767 62.7491C18.999 63.8198 19.7753 64.6242 20.7978 64.8434C21.7692 65.0518 37.7216 65.0524 38.6926 64.8441C39.6707 64.6344 40.379 63.9721 40.6604 63.0045C40.8404 62.3853 40.8654 61.6544 40.8168 58.4512C40.7534 54.2721 40.7018 53.9436 39.8554 52.3338C38.9051 50.5266 36.6822 48.9484 34.6213 48.618C33.5908 48.4526 26.1103 48.4552 24.9774 48.6214ZM35.3245 51.8344C36.6765 52.5003 37.6059 53.8045 37.8647 55.3991C37.9415 55.8728 38.0048 57.5554 38.0054 59.1379L38.0065 62.0152H37.5325H37.0586V58.8408C37.0586 55.7297 37.0524 55.659 36.7494 55.3067C36.5121 55.0309 36.3159 54.9471 35.9077 54.9471C35.4994 54.9471 35.3032 55.0309 35.066 55.3067C34.763 55.659 34.7567 55.7297 34.7567 58.8408V62.0152H30.0176H25.2784V59.0565C25.2784 55.7667 25.1982 55.312 24.5717 55.0486C24.0499 54.8293 23.6139 54.9226 23.2242 55.337C22.9154 55.6655 22.9079 55.7392 22.864 58.8439L22.8193 62.0152H22.2208H21.6225V58.6796C21.6225 56.4812 21.678 55.1541 21.7852 54.7868C22.1802 53.4347 23.272 52.2157 24.5234 51.7296C25.1664 51.4798 25.516 51.4645 29.9499 51.4919C34.5989 51.5208 34.7011 51.5273 35.3245 51.8344Z" fill="white"/>
</svg>
