<svg width="110" height="111" viewBox="0 0 110 111" fill="none" xmlns="http://www.w3.org/2000/svg">
<circle cx="55" cy="55.8574" r="55" fill="#964CDB"/>
<path fill-rule="evenodd" clip-rule="evenodd" d="M52.6638 23.211C52.1825 23.4195 51.5846 23.9362 51.3546 24.3426C51.2755 24.4824 51.1803 25.1399 51.1432 25.8038L51.0756 27.0109L48.0897 27.0744C44.7905 27.1445 44.587 27.1901 43.9792 27.9955C43.6453 28.438 43.3903 29.2067 43.3892 29.7744L43.3884 30.1238L39.0366 30.1252C34.3634 30.1266 34.0003 30.1673 33.0148 30.7987C32.2766 31.2716 31.7518 31.8822 31.3563 32.7286L31 33.491V59.0937V84.6964L31.3348 85.4105C31.8058 86.4149 32.4777 87.1038 33.457 87.5858L34.2982 88H55.078H75.8578L76.699 87.5858C77.6783 87.1038 78.3502 86.4149 78.8212 85.4105L79.156 84.6964L79.1911 73.2635C79.2162 65.039 79.1861 61.734 79.0838 61.4869C78.8926 61.0254 78.3706 60.8504 77.8447 61.0715C77.6225 61.165 77.4276 61.2586 77.4116 61.2794C77.3956 61.3002 77.3526 66.5298 77.3163 72.9006L77.2501 84.4841L76.8689 85.0253C76.6593 85.3228 76.2358 85.6994 75.9278 85.862L75.3677 86.1576H55.078H34.7883L34.2282 85.862C33.9202 85.6994 33.4967 85.3228 33.2871 85.0251L32.9059 84.484L32.8729 59.3868C32.8505 42.3697 32.8823 34.1324 32.9715 33.8009C33.1452 33.1559 33.6641 32.5567 34.2984 32.2686C34.7634 32.0573 35.2141 32.0351 39.0837 32.0326L43.3556 32.0298L43.4425 32.6849C43.6128 33.9679 44.305 34.7177 45.5448 34.9616L46.3108 35.1123V35.9216V36.731L41.3872 36.7313C35.7525 36.7314 35.8024 36.7231 35.2869 37.7455L34.9996 38.3152L35.0328 60.6164L35.0659 82.9176L35.3708 83.3449C35.9419 84.1457 35.6861 84.1247 44.8513 84.1247H53.1837L53.4955 83.8127C53.8697 83.4387 53.8948 82.9901 53.5646 82.5823L53.3216 82.2823L45.115 82.2478L36.9083 82.2133V60.4252V38.6369H41.6096H46.3108V39.6981C46.3108 40.8961 46.5288 41.3743 47.3174 41.9057L47.7461 42.1946H55.078H62.4099L62.8386 41.9057C63.6272 41.3743 63.8452 40.8961 63.8452 39.6981V38.6369H68.5464H73.2477V60.4252V82.2133L65.041 82.2478L56.8344 82.2823L56.5914 82.5823C56.2612 82.9901 56.2863 83.4387 56.6605 83.8127L56.9723 84.1247L65.3324 84.1244C74.8235 84.1243 74.3315 84.1764 74.8677 83.113L75.1536 82.546V60.4278V38.3096L74.8677 37.7427C74.3539 36.7235 74.4011 36.7314 68.7688 36.7313L63.8452 36.731V35.9216V35.1123L64.6112 34.9616C65.851 34.7177 66.5432 33.9679 66.7135 32.6849L66.8004 32.0298L71.0723 32.0326C74.9419 32.0351 75.3926 32.0573 75.8576 32.2686C76.4843 32.5532 77.0054 33.1488 77.181 33.7808C77.2669 34.09 77.3125 38.3167 77.3129 46.0161L77.3136 57.7787L77.6076 58.0551C78.0255 58.4476 78.6231 58.42 78.9593 57.9926L79.2256 57.654L79.1908 45.5724L79.156 33.491L78.7997 32.7286C78.4042 31.8822 77.8794 31.2716 77.1412 30.7987C76.1557 30.1673 75.7926 30.1266 71.1194 30.1252L66.7676 30.1238L66.7668 29.7744C66.7657 29.2067 66.5107 28.438 66.1768 27.9955C65.569 27.1901 65.3655 27.1445 62.0663 27.0744L59.0804 27.0109L59.0128 25.8038C58.9757 25.1399 58.8805 24.4824 58.8014 24.3426C58.5642 23.9235 57.9669 23.4157 57.4645 23.2058C56.8012 22.9287 53.3068 22.9325 52.6638 23.211ZM56.9585 25.0668C57.0492 25.1576 57.111 25.5949 57.111 26.1468V27.0744H55.078H53.045V26.1468C53.045 25.5949 53.1068 25.1576 53.1975 25.0668C53.4096 24.8548 56.7464 24.8548 56.9585 25.0668ZM64.7302 29.226C64.9388 29.6159 64.8992 32.5652 64.6814 32.8631C64.5056 33.1034 64.259 33.1098 55.078 33.1098C45.897 33.1098 45.6504 33.1034 45.4746 32.8631C45.2568 32.5652 45.2172 29.6159 45.4258 29.226C45.5542 28.9864 45.7953 28.9803 55.078 28.9803C64.3607 28.9803 64.6018 28.9864 64.7302 29.226ZM61.9393 35.9051V36.731H55.078H48.2167V35.9051V35.0792H55.078H61.9393V35.9051ZM61.9393 39.4628V40.2887H55.078H48.2167V39.4628V38.6369H55.078H61.9393V39.4628ZM48.3438 45.1907C48.0992 45.2955 47.1254 46.152 46.1799 47.0938L44.4608 48.8061L43.9564 48.285C43.2864 47.5927 42.6451 47.277 41.9089 47.277C40.6407 47.277 39.6767 48.1464 39.5024 49.4474C39.4403 49.9111 39.4899 50.1246 39.7878 50.6743C40.1956 51.4271 42.801 54.1522 43.4175 54.4711C43.9183 54.7299 45.014 54.7332 45.5026 54.4772C46.0157 54.2082 51.1863 48.9562 51.4536 48.4325C51.796 47.7614 51.6793 46.5565 51.2123 45.9443C50.5616 45.0911 49.33 44.7676 48.3438 45.1907ZM49.7155 47.2815C49.7467 47.5486 49.3374 48.0319 47.3184 50.112C45.9793 51.4916 44.7719 52.6803 44.635 52.7535C44.4185 52.8694 44.2078 52.7111 43.0156 51.5361C41.4711 50.0141 41.2309 49.6767 41.4789 49.3779C41.7814 49.0136 42.1254 49.172 42.9576 50.059C43.9491 51.1161 44.3454 51.3188 44.8792 51.0429C45.0846 50.9366 46.1009 49.9573 47.1376 48.8664C48.7309 47.19 49.0734 46.8891 49.3502 46.9213C49.5937 46.9496 49.6876 47.0421 49.7155 47.2815ZM54.4427 49.183C54.1003 49.5254 54.107 50.2133 54.456 50.5292C54.7126 50.7613 55.0243 50.7712 62.0907 50.7712H69.4578L69.7738 50.4039C70.1383 49.9801 70.0999 49.5146 69.6705 49.1512C69.4268 48.945 68.8726 48.9288 62.0522 48.9288C54.8662 48.9288 54.691 48.9347 54.4427 49.183ZM49.0426 56.2297C48.9727 56.2553 48.744 56.3142 48.5344 56.3609C48.2731 56.4189 47.5718 57.0222 46.3055 58.2778L44.4579 60.1102L43.8913 59.5235C42.9048 58.5018 41.9296 58.232 40.9055 58.6973C39.6677 59.2595 39.1164 60.8237 39.7472 61.9834C40.0851 62.6046 42.9413 65.4865 43.4464 65.716C44.1191 66.0217 44.8346 66.0157 45.4886 65.6991C46.0871 65.4094 51.0879 60.3156 51.4372 59.64C51.5559 59.4103 51.6474 58.9375 51.6474 58.5537C51.6474 57.3976 50.7959 56.4333 49.6144 56.2516C49.3698 56.214 49.1125 56.2042 49.0426 56.2297ZM49.6085 58.2608C49.6924 58.3618 49.7422 58.5572 49.7195 58.6951C49.6604 59.0514 44.7081 64.0491 44.4141 64.0491C44.1786 64.0491 41.3554 61.1276 41.3554 60.884C41.3554 60.7131 41.726 60.3643 41.9075 60.3643C41.9915 60.3643 42.515 60.8217 43.0708 61.3808C44.5151 62.8336 44.3547 62.8801 47.0133 60.2372C48.2083 59.0492 49.2469 58.0772 49.3211 58.0772C49.3955 58.0772 49.5248 58.1598 49.6085 58.2608ZM54.4427 60.7455C54.1003 61.0879 54.107 61.7758 54.4559 62.0917C54.7111 62.3226 55.0488 62.3355 61.7937 62.3722C66.4994 62.3978 69.0183 62.3658 69.3253 62.2764C70.1137 62.0468 70.2737 60.9988 69.5774 60.6262C69.4082 60.5356 66.9239 60.4914 62.0112 60.4914C54.8662 60.4914 54.691 60.4972 54.4427 60.7455ZM48.2803 67.7214C47.9822 67.86 47.095 68.6454 46.1346 69.6213L44.497 71.2852L43.8165 70.6632C43.0221 69.937 42.4525 69.7146 41.5986 69.7965C40.0551 69.9449 39.0643 71.5911 39.6804 72.984C39.9845 73.6712 42.5267 76.4123 43.2832 76.8686C43.8833 77.2305 44.9055 77.2795 45.4878 76.9744C46.0113 76.7002 51.1818 71.4548 51.4536 70.9223C51.796 70.2511 51.6793 69.0462 51.2123 68.434C50.5376 67.5495 49.2985 67.2483 48.2803 67.7214ZM49.7159 69.7751C49.7476 70.0471 49.3518 70.5142 47.3171 72.6063C45.977 73.9844 44.7691 75.1714 44.633 75.2444C44.418 75.3594 44.195 75.1889 42.9351 73.9457C41.4326 72.4634 41.2286 72.1691 41.4876 71.8572C41.7774 71.5079 42.1145 71.6751 43.0126 72.614C43.9524 73.5964 44.3457 73.8052 44.8205 73.5738C44.9763 73.4979 45.9957 72.5194 47.0859 71.3994C48.7115 69.7292 49.1228 69.3706 49.373 69.4061C49.5914 69.4369 49.6887 69.5415 49.7159 69.7751ZM54.4427 72.308C54.1003 72.6504 54.107 73.3383 54.4559 73.6542C54.7111 73.8851 55.0488 73.898 61.7937 73.9348C66.4994 73.9603 69.0183 73.9283 69.3253 73.839C70.1137 73.6094 70.2737 72.5614 69.5774 72.1887C69.4082 72.0981 66.9239 72.0539 62.0112 72.0539C54.8662 72.0539 54.691 72.0597 54.4427 72.308Z" fill="white"/>
</svg>
