<svg width="63" height="65" viewBox="0 0 63 65" fill="none" xmlns="http://www.w3.org/2000/svg">
<path fill-rule="evenodd" clip-rule="evenodd" d="M0.374589 0.374589L0 0.749026V32.5V64.251L0.374589 64.6254L0.749026 65H24.0875H47.4259L47.8209 64.5305L48.216 64.0612V52.621V41.1809L55.2596 28.9541C59.6438 21.3437 62.4139 16.378 62.5964 15.8022C63.4241 13.1906 62.0982 10.229 59.5365 8.96786C58.5943 8.50401 58.4121 8.46831 56.9894 8.46831C55.57 8.46831 55.3832 8.50478 54.4526 8.96283C53.8572 9.25594 53.1747 9.7532 52.7773 10.1835C52.4085 10.5829 51.2484 12.4101 50.1994 14.244L48.2923 17.5785L48.2128 9.1325C48.169 4.48729 48.1175 0.672125 48.0983 0.654425C48.0791 0.636726 47.9131 0.48216 47.7294 0.311115C47.3964 0.000763146 47.3331 0 24.0723 0H0.749026L0.374589 0.374589ZM45.621 12.3973L45.6201 22.2007L39.6862 32.5L33.7522 42.7993L33.4294 46.9953C33.2518 49.3031 33.0688 51.4832 33.0227 51.8398L32.939 52.4883H20.4266C7.54427 52.4883 7.5194 52.4893 7.06181 53.0853C6.74154 53.5025 6.82912 54.2961 7.24079 54.7076L7.61522 55.0822H24.108H40.6007L40.9752 54.7076C41.4601 54.2228 41.4627 53.5522 40.9819 52.9927C40.6584 52.6163 40.4816 52.5554 39.5197 52.4883L38.4255 52.412L41.154 50.5413L43.8823 48.6707L44.6825 47.2989C45.1225 46.5444 45.5139 45.9272 45.5523 45.9272C45.5906 45.9272 45.6221 49.635 45.6221 54.1667V62.4061H24.108H2.5939V32.5V2.5939H24.108H45.6221L45.621 12.3973ZM7.24079 10.2924C6.61108 10.922 6.77495 11.9049 7.58089 12.3343C7.82838 12.466 12.1077 12.5117 24.1859 12.5117H40.4578L40.9038 12.0657C41.4729 11.4966 41.5002 10.8173 40.9752 10.2924L40.6007 9.91784H24.108H7.61522L7.24079 10.2924ZM58.3735 11.2748C59.6053 11.8343 60.419 13.349 60.2054 14.6851C60.0939 15.3827 56.4009 21.9718 56.1215 21.9718C55.8796 21.9718 50.7848 19.0152 50.711 18.8318C50.6339 18.6407 54.1758 12.4596 54.672 11.9194C55.4908 11.0282 57.182 10.7335 58.3735 11.2748ZM7.19791 20.9517C6.72506 21.455 6.75329 22.2703 7.26001 22.7463L7.65367 23.1162H24.1335H40.6133L40.9816 22.6881C41.4627 22.1287 41.4602 21.4581 40.9752 20.9732L40.6007 20.5986H24.0653H7.52978L7.19791 20.9517ZM52.1031 22.7498C53.5737 23.5973 54.777 24.3535 54.777 24.4301C54.777 24.5283 42.7712 45.5035 42.4931 45.8915C42.477 45.9138 41.1929 45.1994 39.6396 44.3039L36.8152 42.6759L39.3284 38.3126C40.7106 35.913 43.4922 31.083 45.5098 27.5792C47.5274 24.0755 49.2346 21.2089 49.3037 21.2089C49.3728 21.2089 50.6326 21.9023 52.1031 22.7498ZM7.85798 31.236C6.86635 31.4759 6.52273 32.7344 7.25986 33.4271L7.65352 33.7969L18.9705 33.8369C29.5217 33.8742 30.3236 33.8587 30.8199 33.608C31.1283 33.4524 31.4136 33.1625 31.4978 32.9196C31.7119 32.3027 31.4479 31.7087 30.8199 31.3941C30.3268 31.1469 29.4732 31.1286 19.2254 31.1448C13.1411 31.1544 8.02582 31.1954 7.85798 31.236ZM7.78169 41.9139C6.85918 42.257 6.55035 43.4412 7.21927 44.0697L7.5725 44.4014H19.204H30.8355L31.2099 44.0268C31.695 43.5419 31.6974 42.8713 31.2163 42.3119L30.8481 41.8838L19.4294 41.8562C13.1491 41.8411 7.90757 41.867 7.78169 41.9139ZM38.8044 46.8426C39.7122 47.3682 40.398 47.8556 40.3282 47.9253C40.1048 48.1487 35.7991 51.1082 35.7578 51.0668C35.7358 51.045 35.8164 49.828 35.9368 48.3627C36.0571 46.8973 36.1571 45.607 36.1588 45.4951C36.1612 45.3448 36.2909 45.3694 36.6579 45.5893C36.9307 45.7528 37.8965 46.3168 38.8044 46.8426Z" fill="white"/>
</svg>
