<svg width="56" height="65" viewBox="0 0 56 65" fill="none" xmlns="http://www.w3.org/2000/svg">
<path fill-rule="evenodd" clip-rule="evenodd" d="M1.95261 0.262194C1.63076 0.522743 1.62884 0.541804 1.62884 3.42827C1.62884 6.31474 1.63076 6.3338 1.95261 6.59435C2.1306 6.73861 2.4855 6.85654 2.74111 6.85654H3.20584V34.9684V63.0802H1.91832C0.871329 63.0802 0.572384 63.1275 0.318418 63.333C-0.106139 63.6768 -0.106139 64.4033 0.318418 64.7471C0.619146 64.9905 1.46346 65 22.9427 65C38.1764 65 45.5128 64.9535 46.0683 64.8534C46.5159 64.7728 47.3757 64.4685 47.979 64.1771C49.8351 63.2808 51.2284 61.6654 51.8974 59.6338C52.1898 58.7457 52.2293 58.3826 52.223 56.635C52.2172 54.9949 52.1658 54.4966 51.9291 53.7904L51.6424 52.9343L52.4348 52.2477C52.8706 51.8701 53.2652 51.5612 53.3115 51.5612C53.3579 51.5612 53.3957 51.8697 53.3957 52.2468C53.3957 53.3511 54.1595 53.8373 54.9232 53.2188C55.2378 52.9642 55.247 52.8972 55.247 50.8755C55.247 48.1573 55.3604 48.27 52.6263 48.27C50.8359 48.27 50.6277 48.2954 50.3788 48.5443C50.2265 48.6967 50.1046 49.0014 50.1046 49.23C50.1046 49.8262 50.5304 50.1899 51.2285 50.1899H51.8039L51.3388 50.6698C51.0829 50.9338 50.8074 51.1498 50.7263 51.1498C50.6454 51.1498 50.3334 50.8371 50.0333 50.4548C49.3567 49.5934 48.0133 48.4266 46.7294 47.5853L45.754 46.9462L46.5536 45.0369C47.4101 42.9917 47.4906 42.5648 47.1336 41.9607C46.7007 41.2278 45.7848 41.0709 44.9028 41.5786L44.3777 41.8807L43.6028 41.347C42.2921 40.4444 41.1188 40.5161 39.7819 41.5807L39.4012 41.8839L38.8142 41.5631C38.2285 41.2432 37.5084 41.2097 36.9057 41.4745C36.6778 41.5746 36.6658 40.7019 36.6658 24.2183V6.85654H37.2143C37.58 6.85654 37.8543 6.76507 38.0371 6.58228C38.2939 6.32543 38.3113 6.12522 38.3113 3.42827C38.3113 0.731319 38.2939 0.531108 38.0371 0.274262C37.7657 0.00287975 37.58 0 20.0196 0C2.754 0 2.26759 0.00699377 1.95261 0.262194ZM36.3915 3.42827V4.93671H19.9358H3.48011V3.42827V1.91983H19.9358H36.3915V3.42827ZM34.7459 26.9121V46.9676L32.7309 47.6454C31.6226 48.0183 30.6044 48.4347 30.4683 48.5709C29.9751 49.064 30.3409 50.1899 30.994 50.1899C31.1177 50.1899 32.0125 49.9138 32.9824 49.5763C33.9524 49.239 34.7459 49.0289 34.7459 49.1097C34.7459 49.1905 34.3912 49.6452 33.9574 50.1202C32.0539 52.2056 31.1678 54.6304 31.365 57.2148C31.525 59.3133 32.1974 61.083 33.3237 62.3707L33.9444 63.0802H30.7113H27.478V56.7721C27.478 50.6469 27.47 50.4562 27.2037 50.1899C26.9367 49.9229 26.7467 49.9156 20.0196 49.9156C13.4213 49.9156 13.095 49.9274 12.7859 50.1777L12.4622 50.4397L12.4239 56.7599L12.3857 63.0802H8.75566H5.12567V34.9684V6.85654H19.9358H34.7459V26.9121ZM7.84923 10.4099C7.52738 10.6704 7.52546 10.6895 7.52546 13.5759C7.52546 17.2487 7.33855 17.0042 10.1462 17.0042C12.8537 17.0042 12.6679 17.2568 12.6679 13.5759C12.6679 9.89508 12.8537 10.1477 10.1462 10.1477C8.40763 10.1477 8.13446 10.1788 7.84923 10.4099ZM14.4315 10.4099C14.1097 10.6704 14.1077 10.6895 14.1077 13.5759C14.1077 17.2487 13.9208 17.0042 16.7284 17.0042C19.436 17.0042 19.2501 17.2568 19.2501 13.5759C19.2501 9.89508 19.436 10.1477 16.7284 10.1477C14.9899 10.1477 14.7167 10.1788 14.4315 10.4099ZM21.0138 10.4099C20.6919 10.6704 20.69 10.6895 20.69 13.5759C20.69 17.2487 20.5031 17.0042 23.3107 17.0042C26.0182 17.0042 25.8324 17.2568 25.8324 13.5759C25.8324 9.89508 26.0182 10.1477 23.3107 10.1477C21.5722 10.1477 21.299 10.1788 21.0138 10.4099ZM27.5961 10.4099C27.2742 10.6704 27.2723 10.6895 27.2723 13.5759C27.2723 17.2487 27.0854 17.0042 29.893 17.0042C32.6005 17.0042 32.4147 17.2568 32.4147 13.5759C32.4147 9.89508 32.6005 10.1477 29.893 10.1477C28.1545 10.1477 27.8813 10.1788 27.5961 10.4099ZM10.748 13.5759V15.0844H10.0624H9.37673V13.5759V12.0675H10.0624H10.748V13.5759ZM17.3303 13.5759V15.0844H16.6447H15.959V13.5759V12.0675H16.6447H17.3303V13.5759ZM23.9126 13.5759V15.0844H23.2269H22.5413V13.5759V12.0675H23.2269H23.9126V13.5759ZM30.4949 13.5759V15.0844H29.8092H29.1236V13.5759V12.0675H29.8092H30.4949V13.5759ZM7.84923 20.2833C7.52738 20.5438 7.52546 20.5629 7.52546 23.4494C7.52546 27.1221 7.33855 26.8776 10.1462 26.8776C12.8537 26.8776 12.6679 27.1302 12.6679 23.4494C12.6679 19.7685 12.8537 20.0211 10.1462 20.0211C8.40763 20.0211 8.13446 20.0522 7.84923 20.2833ZM14.4315 20.2833C14.1097 20.5438 14.1077 20.5629 14.1077 23.4494C14.1077 27.1221 13.9208 26.8776 16.7284 26.8776C19.436 26.8776 19.2501 27.1302 19.2501 23.4494C19.2501 19.7685 19.436 20.0211 16.7284 20.0211C14.9899 20.0211 14.7167 20.0522 14.4315 20.2833ZM21.0138 20.2833C20.6919 20.5438 20.69 20.5629 20.69 23.4494C20.69 27.1221 20.5031 26.8776 23.3107 26.8776C26.0182 26.8776 25.8324 27.1302 25.8324 23.4494C25.8324 19.7685 26.0182 20.0211 23.3107 20.0211C21.5722 20.0211 21.299 20.0522 21.0138 20.2833ZM27.5961 20.2833C27.2742 20.5438 27.2723 20.5629 27.2723 23.4494C27.2723 27.1221 27.0854 26.8776 29.893 26.8776C32.6005 26.8776 32.4147 27.1302 32.4147 23.4494C32.4147 19.7685 32.6005 20.0211 29.893 20.0211C28.1545 20.0211 27.8813 20.0522 27.5961 20.2833ZM10.748 23.4494V24.9578H10.0624H9.37673V23.4494V21.9409H10.0624H10.748V23.4494ZM17.3303 23.4494V24.9578H16.6447H15.959V23.4494V21.9409H16.6447H17.3303V23.4494ZM23.9126 23.4494V24.9578H23.2269H22.5413V23.4494V21.9409H23.2269H23.9126V23.4494ZM30.4949 23.4494V24.9578H29.8092H29.1236V23.4494V21.9409H29.8092H30.4949V23.4494ZM7.84923 30.1567C7.52738 30.4173 7.52546 30.4363 7.52546 33.3228C7.52546 36.9956 7.33855 36.7511 10.1462 36.7511C12.8537 36.7511 12.6679 37.0036 12.6679 33.3228C12.6679 29.6419 12.8537 29.8945 10.1462 29.8945C8.40763 29.8945 8.13446 29.9256 7.84923 30.1567ZM14.4315 30.1567C14.1097 30.4173 14.1077 30.4363 14.1077 33.3228C14.1077 36.9956 13.9208 36.7511 16.7284 36.7511C19.436 36.7511 19.2501 37.0036 19.2501 33.3228C19.2501 29.6419 19.436 29.8945 16.7284 29.8945C14.9899 29.8945 14.7167 29.9256 14.4315 30.1567ZM21.0138 30.1567C20.6919 30.4173 20.69 30.4363 20.69 33.3228C20.69 36.9956 20.5031 36.7511 23.3107 36.7511C26.0182 36.7511 25.8324 37.0036 25.8324 33.3228C25.8324 29.6419 26.0182 29.8945 23.3107 29.8945C21.5722 29.8945 21.299 29.9256 21.0138 30.1567ZM27.5961 30.1567C27.2742 30.4173 27.2723 30.4363 27.2723 33.3228C27.2723 36.9956 27.0854 36.7511 29.893 36.7511C32.6005 36.7511 32.4147 37.0036 32.4147 33.3228C32.4147 29.6419 32.6005 29.8945 29.893 29.8945C28.1545 29.8945 27.8813 29.9256 27.5961 30.1567ZM10.748 33.3228V34.8312H10.0624H9.37673V33.3228V31.8143H10.0624H10.748V33.3228ZM17.3303 33.3228V34.8312H16.6447H15.959V33.3228V31.8143H16.6447H17.3303V33.3228ZM23.9126 33.3228V34.8312H23.2269H22.5413V33.3228V31.8143H23.2269H23.9126V33.3228ZM30.4949 33.3228V34.8312H29.8092H29.1236V33.3228V31.8143H29.8092H30.4949V33.3228ZM7.84923 40.0301C7.52738 40.2907 7.52546 40.3097 7.52546 43.1962C7.52546 46.869 7.33855 46.6245 10.1462 46.6245C12.8537 46.6245 12.6679 46.8771 12.6679 43.1962C12.6679 39.5153 12.8537 39.7679 10.1462 39.7679C8.40763 39.7679 8.13446 39.7991 7.84923 40.0301ZM14.4315 40.0301C14.1097 40.2907 14.1077 40.3097 14.1077 43.1962C14.1077 46.869 13.9208 46.6245 16.7284 46.6245C19.436 46.6245 19.2501 46.8771 19.2501 43.1962C19.2501 39.5153 19.436 39.7679 16.7284 39.7679C14.9899 39.7679 14.7167 39.7991 14.4315 40.0301ZM21.0138 40.0301C20.6919 40.2907 20.69 40.3097 20.69 43.1962C20.69 46.869 20.5031 46.6245 23.3107 46.6245C26.0182 46.6245 25.8324 46.8771 25.8324 43.1962C25.8324 39.5153 26.0182 39.7679 23.3107 39.7679C21.5722 39.7679 21.299 39.7991 21.0138 40.0301ZM27.5961 40.0301C27.2742 40.2907 27.2723 40.3097 27.2723 43.1962C27.2723 46.869 27.0854 46.6245 29.893 46.6245C32.6005 46.6245 32.4147 46.8771 32.4147 43.1962C32.4147 39.5153 32.6005 39.7679 29.893 39.7679C28.1545 39.7679 27.8813 39.7991 27.5961 40.0301ZM10.748 43.1962V44.7046H10.0624H9.37673V43.1962V41.6878H10.0624H10.748V43.1962ZM17.3303 43.1962V44.7046H16.6447H15.959V43.1962V41.6878H16.6447H17.3303V43.1962ZM23.9126 43.1962V44.7046H23.2269H22.5413V43.1962V41.6878H23.2269H23.9126V43.1962ZM30.4949 43.1962V44.7046H29.8092H29.1236V43.1962V41.6878H29.8092H30.4949V43.1962ZM42.6305 43.0588C43.2324 43.5371 44.0884 43.8029 44.6591 43.6888C44.9467 43.6313 45.0409 43.6568 44.9932 43.7796C44.6121 44.7599 43.9949 46.1803 43.8895 46.3195C43.7904 46.4503 43.2589 46.4849 41.7795 46.4566L39.8019 46.4188L39.2623 45.1296C38.9656 44.4205 38.7227 43.7966 38.7227 43.7429C38.7227 43.6895 38.8666 43.6731 39.0424 43.7067C39.5314 43.8003 40.4048 43.5154 40.9988 43.0688C41.6839 42.5537 41.9926 42.5518 42.6305 43.0588ZM37.3481 45.5196L37.7354 46.4585L37.3236 46.541C37.0972 46.5862 36.8565 46.5891 36.7888 46.5473C36.7212 46.5054 36.6677 45.9348 36.6699 45.2794C36.6745 43.9496 36.7053 43.9604 37.3481 45.5196ZM45.6672 49.2066C47.0682 50.1286 48.2403 51.1621 48.7995 51.9691L49.1896 52.5321L48.6594 53.0751C48.3677 53.3738 48.0565 53.6181 47.9677 53.6181C47.8789 53.6181 47.4459 53.3381 47.0051 52.996C46.1451 52.3282 45.72 52.1544 45.3936 52.3373C45.2806 52.4007 44.0727 53.4307 42.7097 54.6262C40.4285 56.6268 40.2312 56.8362 40.2312 57.2562C40.2312 57.9793 40.8451 58.4181 41.4815 58.1499C41.6612 58.0741 42.7028 57.2169 43.7964 56.2447L45.7845 54.4774L46.539 55.0551C47.4058 55.7193 47.8071 55.9494 48.0978 55.9494C48.2108 55.9494 48.6931 55.6139 49.1696 55.2039C49.7421 54.7113 50.0825 54.5044 50.1731 54.5937C50.2517 54.6712 50.3083 55.5304 50.3059 56.6076C50.3019 58.237 50.2598 58.5908 49.988 59.2733C49.3318 60.9209 48.2172 62.0757 46.6763 62.704C45.9527 62.9991 45.7549 63.0116 41.8082 63.0116H37.6942L36.7723 62.5748C34.9827 61.7271 33.8815 60.2832 33.4447 58.212C33.1704 56.9118 33.1867 56.0544 33.5097 54.7916C33.857 53.4336 34.4254 52.4464 35.5402 51.2647C36.4828 50.2654 37.2447 49.659 38.5306 48.8848L39.3236 48.4072H41.888H44.4522L45.6672 49.2066ZM18.9759 57.4578V63.0802H16.6447H14.3134V57.4578V51.8354H16.6447H18.9759V57.4578ZM25.5582 57.4578V63.0802H23.2269H20.8957V57.4578V51.8354H23.2269H25.5582V57.4578ZM35.6347 53.2911C35.1315 53.834 34.7177 55.0664 34.6421 56.2472C34.5786 57.2387 34.5951 57.3194 34.9284 57.6528C35.3518 58.0761 35.6879 58.0993 36.149 57.7366C36.4444 57.5042 36.5011 57.3284 36.5574 56.4681C36.6049 55.7454 36.7265 55.2659 36.9979 54.7329C37.3917 53.9593 37.3919 53.5411 36.9986 53.1478C36.6623 52.8115 36.0163 52.8793 35.6347 53.2911Z" fill="white"/>
</svg>
