<svg width="66" height="65" viewBox="0 0 66 65" fill="none" xmlns="http://www.w3.org/2000/svg">
<path fill-rule="evenodd" clip-rule="evenodd" d="M30.0922 0.0378047C29.8477 0.0662639 29.1044 0.151514 28.4406 0.227363C24.6529 0.659841 20.1989 2.10033 16.8251 3.98385C3.78963 11.2611 -2.62474 26.0726 1.00495 40.5141C2.13201 44.9981 4.48523 49.6308 7.45502 53.2122C8.51512 54.4906 8.86476 54.71 9.43077 54.4521C9.8499 54.2612 10.1003 53.6635 9.91889 53.2871C9.8447 53.1329 9.3755 52.5209 8.87632 51.927C5.83119 48.304 3.52028 43.4756 2.51977 38.6457C1.24723 32.5031 2.00318 25.5412 4.54024 20.0375L4.80374 19.4658L4.80654 21.283C4.8106 23.8947 5.23177 25.4868 6.3479 27.1089C6.89358 27.9021 9.59365 30.6806 10.0461 30.9146C10.7166 31.2613 11.4159 30.8088 11.4159 30.0282C11.4159 29.722 11.106 29.3425 9.64167 27.8555C8.13537 26.3259 7.79983 25.9114 7.4202 25.1102C7.17424 24.5912 6.91505 23.8586 6.84403 23.4823C6.77314 23.1059 6.71508 21.2605 6.71508 19.3813V15.9648L7.55704 14.7931C9.36025 12.2836 11.4719 10.0834 13.8 8.28829L15.0273 7.3419L15.9291 8.21626C16.5647 8.8327 16.9597 9.1145 17.2678 9.17155C17.5082 9.21601 19.2587 9.23494 21.1577 9.2136L24.6107 9.17472L25.6842 8.12656L26.7579 7.0784L28.6474 7.08119C31.0068 7.08462 31.1548 7.14561 32.7285 8.76041L33.9037 9.96637V10.9012V11.8362L28.2818 17.4649C24.0639 21.6879 22.5029 23.1721 22.0314 23.4077C21.524 23.6614 21.212 23.7219 20.4116 23.7219H19.4201V22.6561C19.4201 21.796 19.3732 21.5323 19.1771 21.2903C18.9401 20.9975 18.8854 20.9904 16.8835 20.9904H14.8328L12.9446 22.9011C9.97187 25.9092 9.85715 25.5058 15.2108 30.8685C18.99 34.6541 19.2657 34.9023 19.6905 34.9023C20.0661 34.9023 20.2331 34.8037 20.6695 34.3241C21.6274 33.2716 21.8151 33.2338 25.8672 33.2767L29.3935 33.3142L30.1553 33.6708C30.7716 33.9594 31.3624 34.4693 33.2464 36.3389C34.5274 37.6101 35.6854 38.8625 35.8196 39.1216C36.1406 39.7419 36.1739 42.3965 35.8698 43.1243C35.7618 43.3826 35.0157 44.2566 34.1864 45.0963L32.6968 46.6042L32.6232 47.8999C32.5738 48.7685 32.4749 49.3419 32.3231 49.6401C32.1985 49.8847 31.3597 50.8327 30.4592 51.747L28.8217 53.4092V55.8443C28.8217 58.0768 28.8033 58.2795 28.5999 58.2795C28.242 58.2795 26.485 56.3678 26.0756 55.5328L25.709 54.7856L25.6455 50.755L25.582 46.7243L22.5075 43.6402C20.5136 41.64 19.3638 40.39 19.236 40.0837C19.1131 39.7893 19.0389 39.2244 19.0389 38.5845C19.0389 37.9417 18.9713 37.4295 18.8581 37.2146C18.7586 37.026 17.5689 35.771 16.2143 34.4259C14.0339 32.2606 13.7043 31.9802 13.3402 31.9802C12.8933 31.9802 12.3053 32.4508 12.3053 32.8085C12.3053 33.2228 12.6332 33.6154 14.8494 35.8552L17.1125 38.1421L17.1579 39.1585C17.2366 40.9191 17.4521 41.2404 20.8246 44.6251L23.7398 47.5508V50.9826C23.7398 54.7875 23.8131 55.3111 24.5374 56.6811C24.9832 57.5242 26.864 59.5775 27.4858 59.9C28.048 60.1915 29.1715 60.1742 29.698 59.866C30.6097 59.3321 30.6594 59.1672 30.7039 56.5251L30.7439 54.1532L32.3034 52.5636C34.098 50.7346 34.3875 50.191 34.5035 48.4331L34.5705 47.4167L35.8857 46.073C36.827 45.1113 37.3011 44.5155 37.5534 43.9767C37.894 43.2494 37.9058 43.1536 37.9058 41.1278C37.9058 38.2635 37.9667 38.3761 34.6396 35.0783C33.2086 33.6598 31.7858 32.3641 31.4419 32.1663C30.1805 31.4411 29.5012 31.3449 25.6367 31.3449C21.7674 31.3449 21.4189 31.3952 20.2963 32.1156L19.6527 32.5286L16.2336 29.1114L12.8146 25.6941L14.2413 24.2633L15.6679 22.8326H16.5912H17.5143L17.5146 23.4996C17.5147 24.3262 17.8172 24.9556 18.4037 25.3499C18.8224 25.6315 18.941 25.6464 20.4365 25.6046C22.9902 25.533 22.5187 25.8802 29.4289 18.9825C33.2922 15.1261 35.3945 12.9362 35.5591 12.5967C35.9067 11.8796 35.9109 9.91148 35.5662 9.17472C35.2273 8.45028 32.7341 6.03367 31.8709 5.59293C31.1968 5.24875 31.0938 5.23465 28.9501 5.19349C27.5201 5.16592 26.554 5.20276 26.2403 5.29678C25.9258 5.39105 25.4023 5.77779 24.764 6.38763L23.7751 7.3325H20.7982H17.8213L17.284 6.78504L16.7467 6.23746L17.7975 5.65049C26.3893 0.850797 37.2687 0.631 46.1103 5.07825L47.4345 5.74438L47.4719 6.74502L47.5094 7.74554L45.9758 9.30965C43.8572 11.4705 43.7633 11.6832 43.7087 14.4473L43.6673 16.5436L44.0319 17.2405C44.3 17.7526 44.5608 18.0387 45.0167 18.3204C45.632 18.7005 45.6505 18.7035 47.4884 18.7035C49.2442 18.7035 49.379 18.6853 50.0881 18.3532C50.5913 18.1175 51.1965 17.6501 51.9386 16.9239L53.0413 15.8448H55.6073H58.1734L58.6378 16.5708C59.2431 17.5171 60.4794 19.9374 60.8402 20.8824C61.1623 21.7261 61.8547 23.7143 61.8547 23.7954C61.8547 23.9351 60.3958 23.8267 59.9891 23.6569C59.7361 23.5512 59.0756 23.0313 58.5212 22.5016C57.8456 21.8562 57.2338 21.4061 56.6665 21.1374L55.8198 20.7363L52.5371 20.695C48.7648 20.6473 47.9354 20.7444 46.5834 21.3917C45.7903 21.7715 45.3973 22.0968 43.8716 23.6364C41.3209 26.2105 41.0226 26.8978 41.0201 30.2065C41.0176 33.372 41.4237 34.4138 43.452 36.4448C44.4588 37.453 44.8686 37.7659 45.7389 38.1914C47.0952 38.8543 47.8434 38.9657 50.9482 38.9669L53.4456 38.9679L53.4892 40.2498C53.529 41.4165 53.5599 41.5535 53.8329 41.7744C54.2218 42.0891 54.8 42.0841 55.1211 41.763C55.3531 41.531 55.3752 41.3395 55.3752 39.5639C55.3752 38.0861 55.332 37.5597 55.1951 37.3723C55.0262 37.1409 54.7882 37.1215 51.3519 37.0572C46.7877 36.9721 46.7766 36.9688 44.982 35.2333C44.1776 34.4555 43.6551 33.8267 43.3867 33.3142L42.9878 32.5519V30.265C42.9878 28.0308 42.9959 27.9607 43.3402 27.2255C43.5966 26.678 44.0643 26.0957 45.0546 25.0906C47.4702 22.6395 47.7467 22.5452 52.3599 22.6024C56.0863 22.6485 55.8714 22.5871 57.3928 24.0406C58.7877 25.3733 59.4255 25.6677 61.0566 25.732C62.1207 25.774 62.3659 25.8208 62.4165 25.9913C62.5779 26.536 62.8801 28.4999 62.9961 29.7568C63.4706 34.9021 62.5732 40.2036 60.4048 45.0634C59.6848 46.677 58.9338 48.0015 57.745 49.7546L56.8489 51.076L56.4318 50.5935C55.6672 49.709 55.4745 48.9529 55.4049 46.5642C55.3379 44.272 55.3039 44.1628 54.599 43.987C54.3508 43.925 54.1752 43.9836 53.9002 44.2199C53.5426 44.5272 53.5318 44.5726 53.4902 45.9337C53.4046 48.7338 53.813 50.3326 55.0099 51.8839C55.4246 52.4216 55.496 52.5907 55.3908 52.7872C55.3196 52.9201 54.601 53.6638 53.794 54.4397C48.5747 59.4572 42.2233 62.3542 35.0472 62.9905C27.488 63.6607 19.4021 61.2098 13.4555 56.4459C12.1233 55.3787 11.6546 55.2388 11.1668 55.7625C10.5606 56.413 10.856 56.8699 12.877 58.4081C15.1861 60.1654 18.5944 62.0254 21.3712 63.0436C31.9883 66.9368 44.063 64.9321 52.8977 57.8093C66.8824 46.5342 69.0896 26.0661 57.8271 12.0969C52.6318 5.6529 45.4432 1.5591 37.08 0.28174C35.8134 0.0882435 31.0806 -0.0769213 30.0922 0.0378047ZM50.9396 8.08476C52.591 9.32477 54.5586 11.182 55.8468 12.7166L56.8196 13.8756L54.5213 13.9391L52.2229 14.0026L50.8967 15.2934C49.3722 16.777 49.1872 16.8595 47.3792 16.8605C46.3227 16.8611 46.1455 16.8285 45.8863 16.585C45.6078 16.3233 45.5924 16.2215 45.5951 14.6475C45.5988 12.4489 45.6619 12.3184 47.7548 10.1885L49.4038 8.51012V7.7942C49.4038 7.40047 49.4478 7.0784 49.5015 7.0784C49.5553 7.0784 50.2025 7.5312 50.9396 8.08476Z" fill="white"/>
</svg>
