<svg width="67" height="65" viewBox="0 0 67 65" fill="none" xmlns="http://www.w3.org/2000/svg">
<path fill-rule="evenodd" clip-rule="evenodd" d="M22.9828 0.216686C20.6142 0.759289 18.5236 1.75136 16.4342 3.32425C15.7457 3.84251 15.3234 4.01793 14.559 4.10252C11.0526 4.49121 7.92747 6.99131 6.71732 10.3758C6.22448 11.7537 6.10807 14.2275 6.38746 17.3814L6.60802 19.8716L6.13082 20.5926C5.41262 21.678 5.14852 22.6072 5.14852 24.0494C5.14852 27.018 6.97823 29.366 9.90575 30.1542C10.5015 30.3147 10.6584 30.4386 10.6597 30.7499C10.6625 31.4717 11.8202 34.5037 12.6031 35.8397C13.3956 37.1926 15.7 39.754 16.7957 40.5001C17.2788 40.829 17.4096 41.0384 17.4105 41.4841C17.4117 42.0148 17.2918 42.1225 15.5012 43.1967C14.4188 43.8461 11.7413 45.1322 9.32512 46.163C6.97911 47.164 4.63969 48.2607 4.12641 48.6C2.50642 49.6712 1.25664 51.3141 0.495966 53.3731C0.139445 54.3381 0.101234 54.8278 0.0358303 59.2853C-0.0354385 64.1329 -0.0345508 64.1464 0.365869 64.5727L0.767357 65H32.5698H64.3723L65.063 64.6118C65.5132 64.3588 65.8828 63.9567 66.1247 63.4568C66.4569 62.7709 66.4853 62.4789 66.3949 60.6903C66.2715 58.2471 66.2715 58.4234 66.3949 55.9801C66.486 54.1762 66.4587 53.9032 66.1141 53.1916C65.6537 52.2404 64.6395 51.6704 63.4074 51.6704H62.5954L63.2132 51.004C69.3713 44.3605 66.1937 33.6784 57.4051 31.4788C55.7838 31.073 52.5876 31.2083 51.0022 31.7498C47.5273 32.9367 44.7037 35.761 43.5243 39.2295C43.0475 40.6318 42.8607 43.6727 43.1645 45.0888C43.2761 45.6092 43.3392 46.0633 43.3047 46.0978C43.1598 46.2425 38.3459 44.0072 36.8729 43.1112C35.3876 42.2077 35.2694 42.0934 35.2199 41.5101C35.1752 40.9874 35.2497 40.8276 35.6642 40.558C36.5336 39.9921 38.3966 38.1128 39.1988 36.9921C40.2094 35.5804 41.1177 33.6362 41.6221 31.806C42.0243 30.3463 42.0316 30.3353 42.7379 30.1458C46.9213 29.024 48.7947 24.1319 46.4041 20.5724C45.9503 19.8968 45.9247 19.7644 46.0502 18.7398C46.1247 18.1325 46.2386 16.5159 46.3031 15.1474C46.3964 13.1716 46.3621 12.4122 46.1369 11.4596C45.2017 7.50494 41.9449 4.55733 38.0203 4.11319C37.0327 4.00157 36.7693 3.88285 35.8314 3.12715C34.5408 2.08727 32.3679 0.992824 30.5636 0.474037C28.84 -0.0214678 24.6449 -0.163829 22.9828 0.216686ZM29.1956 2.72656C33.7536 3.74813 37.4573 7.08355 39.0397 11.5929L39.5388 13.0147L39.5916 21.2516C39.6415 29.0519 39.625 29.5656 39.2815 30.9378C38.3107 34.8142 35.8037 37.9337 32.252 39.6847C29.9522 40.8184 28.7747 41.0852 26.1204 41.0734C24.1986 41.0651 23.6949 40.9979 22.3881 40.5754C17.826 39.1006 14.5793 35.7171 13.2714 31.075C12.9077 29.7842 12.8898 29.3528 12.8848 21.8122C12.8791 13.1229 12.9111 12.7989 14.0113 10.3724C15.7519 6.53348 19.3225 3.59369 23.3023 2.72282C24.877 2.37821 27.649 2.37999 29.1956 2.72656ZM12.2271 8.38736C11.8448 9.11711 11.3715 10.1767 11.1754 10.7422C10.7158 12.0677 10.3049 14.7786 10.3037 16.4949L10.3026 17.8425L9.64521 18.0444C9.28353 18.1553 8.9654 18.2237 8.93803 18.1963C8.91066 18.169 8.83512 16.9121 8.77007 15.403C8.67037 13.0883 8.69987 12.4925 8.95847 11.5929C9.48525 9.76119 10.5255 8.40389 12.0799 7.51987C12.5198 7.26981 12.8893 7.06418 12.901 7.06293C12.9127 7.06169 12.6093 7.65779 12.2271 8.38736ZM41.858 8.6081C42.329 9.07907 42.9533 9.97518 43.2565 10.6148C43.8025 11.7668 43.8041 11.7798 43.7732 14.5938C43.7559 16.1464 43.6955 17.6018 43.6388 17.8277C43.5403 18.2198 43.5055 18.228 42.8703 18.0085L42.2047 17.7787L42.0922 15.3077C41.9504 12.1945 41.435 10.2732 40.1258 7.9793L39.585 7.03183L40.2959 7.39457C40.6869 7.59398 41.3898 8.14014 41.858 8.6081ZM22.6822 9.51859C22.2692 9.97482 22.3094 10.8444 22.7622 11.2543C23.101 11.5609 23.4388 11.5929 26.3324 11.5929C29.4769 11.5929 29.5342 11.5861 29.8683 11.1732C30.2803 10.6648 30.3019 10.1175 29.9314 9.58862C29.6623 9.2042 29.5647 9.19353 26.3155 9.19353C23.3062 9.19353 22.9472 9.2257 22.6822 9.51859ZM20.0776 14.3476C19.8802 14.5451 19.7222 14.94 19.7222 15.2363C19.7222 15.5325 19.8802 15.9275 20.0776 16.1249C20.4187 16.466 20.67 16.4804 26.2981 16.4804C31.9262 16.4804 32.1775 16.466 32.5186 16.1249C32.9981 15.6454 32.9728 14.8579 32.4628 14.3786C32.0577 13.998 31.9619 13.9922 26.2423 13.9922C20.67 13.9922 20.4185 14.0068 20.0776 14.3476ZM10.3026 24.0338C10.3026 26.0377 10.2346 27.6772 10.1512 27.6772C9.84657 27.6772 8.8106 26.8597 8.28044 26.201C7.81834 25.6266 7.72575 25.3424 7.66799 24.3194C7.59352 23.0028 7.91823 22.0905 8.73026 21.3352C9.07026 21.0188 10.0789 20.3959 10.2582 20.3914C10.2827 20.3909 10.3026 22.0299 10.3026 24.0338ZM44.3144 21.9393C44.9284 22.8139 45.1276 24.23 44.7834 25.2733C44.4322 26.3373 43.0493 27.6772 42.3025 27.6772C42.0961 27.6772 42.0281 20.7151 42.2324 20.5109C42.4594 20.2837 43.7959 21.2008 44.3144 21.9393ZM32.1267 21.4788C29.8811 21.8117 28.7124 23.6158 30.2328 24.402C30.7054 24.6464 30.8182 24.6384 31.5675 24.307C32.5157 23.8875 33.6592 23.8475 34.2958 24.2115C35.3528 24.8156 36.4286 24.3519 36.4286 23.292C36.4286 22.1124 34.1972 21.1718 32.1267 21.4788ZM17.856 21.6739C17.0812 21.9485 16.3384 22.5108 16.1781 22.944C15.9704 23.5059 16.302 24.2392 16.8707 24.4749C17.2946 24.6505 17.4857 24.6253 18.0962 24.3139C18.9946 23.8555 19.9902 23.8436 20.9636 24.2794C21.7909 24.6498 22.2157 24.6077 22.6653 24.1107C23.4022 23.2966 22.6769 22.1147 21.1616 21.6608C20.3281 21.4111 18.5778 21.418 17.856 21.6739ZM23.2668 28.1827C22.7736 28.5822 22.7254 29.4767 23.171 29.969C24.2628 31.1754 27.129 31.4015 28.7399 30.408C29.4697 29.958 29.5935 29.7968 29.6406 29.2361C29.6801 28.7661 29.5939 28.4848 29.3296 28.2205C28.8705 27.7614 28.431 27.759 27.5886 28.2104C27.2239 28.4059 26.6431 28.5658 26.2981 28.5658C25.9531 28.5658 25.3723 28.4059 25.0076 28.2104C24.1844 27.7693 23.7852 27.7629 23.2668 28.1827ZM20.905 33.3341C20.427 33.8621 20.531 34.6875 21.1401 35.2001C23.2513 36.9764 27.0486 37.3852 29.7885 36.1308C31.3996 35.3932 31.9854 34.8737 31.9854 34.1827C31.9854 33.0076 30.9245 32.6785 29.6133 33.4468C27.6419 34.6022 25.3314 34.6623 23.3139 33.6106C22.0168 32.9346 21.3372 32.8565 20.905 33.3341ZM57.6843 34.1349C59.5692 34.8107 61.2737 36.12 62.4052 37.7615C63.2182 38.941 63.8082 40.7187 63.9209 42.3285C64.1704 45.8909 62.1642 49.4691 59.0069 51.0928L57.8837 51.6704H54.6901H51.4963L50.4051 51.0976C49.8049 50.7825 48.7881 50.0026 48.1456 49.3648C46.3298 47.5615 45.4987 45.5227 45.4948 42.8608C45.4891 38.9816 47.8614 35.5893 51.5674 34.1772C53.1714 33.566 56.0419 33.5461 57.6843 34.1349ZM54.3791 35.8107C53.8855 35.9742 53.4904 36.4381 53.4904 36.8542C53.4904 37.1522 53.3049 37.3623 52.8239 37.609C51.5308 38.2723 51.0022 39.1602 51.0022 40.67C51.0022 41.7207 51.4905 42.7789 52.2122 43.2929C52.4911 43.4916 53.3841 43.8385 54.1969 44.0642C55.8883 44.5338 56.1953 44.8263 55.7342 45.5298C55.457 45.9529 55.3326 45.9956 54.5143 45.9476C53.6804 45.8987 53.5917 45.8513 53.4682 45.3865C53.2734 44.6537 52.7994 44.2059 52.2188 44.2059C50.4223 44.2059 50.7156 47.0332 52.621 48.0837C53.2213 48.4146 53.4862 48.6729 53.4879 48.9292C53.4911 49.4071 54.2015 50.0709 54.7096 50.0709C55.2307 50.0709 55.9786 49.3095 55.9786 48.779C55.9786 48.4768 56.1478 48.2789 56.5831 48.0713C57.9022 47.4421 58.7224 45.5845 58.3022 44.1769C57.9411 42.9666 56.9888 42.1837 55.4181 41.8055C53.6977 41.3914 53.4904 41.2703 53.4904 40.6806C53.4904 39.9848 53.7949 39.7627 54.7484 39.7627C55.6349 39.7627 55.9077 39.9516 56.006 40.6335C56.0397 40.868 56.2791 41.2174 56.5377 41.4099C56.9133 41.6891 57.1104 41.7257 57.5152 41.5911C59.0341 41.0866 58.5452 38.5877 56.7576 37.7188C56.194 37.4449 55.9903 37.2233 55.8691 36.753C55.7053 36.1166 54.932 35.6277 54.3791 35.8107ZM22.2694 43.0769C25.2563 43.8613 28.1498 43.7973 31.0281 42.8832C32.1708 42.5203 32.3057 42.507 32.1146 42.7753C31.783 43.2413 26.4017 48.8252 26.2837 48.8261C26.2268 48.8264 24.7872 47.3719 23.0846 45.5936C21.3818 43.8154 20.1487 42.4289 20.3442 42.5127C20.5397 42.5962 21.406 42.8502 22.2694 43.0769ZM20.2842 46.2942C21.3064 47.3451 22.6415 48.7353 23.2513 49.3838L24.3598 50.5628L22.8852 51.5899C22.0742 52.1547 20.921 52.9636 20.3225 53.3871L19.2347 54.1572L17.6122 50.1677C16.72 47.9735 15.9899 46.0988 15.9899 46.0016C15.9899 45.8769 18.2047 44.3953 18.4075 44.3845C18.4175 44.384 19.262 45.2433 20.2842 46.2942ZM35.4125 45.1121C36.2995 45.6391 36.6155 45.9217 36.5553 46.134C36.4764 46.4122 33.4006 54.0308 33.3375 54.1048C33.2652 54.1894 28.3971 50.676 28.3821 50.5285C28.3665 50.3739 33.9395 44.3969 34.1078 44.3879C34.151 44.3856 34.738 44.7113 35.4125 45.1121ZM15.646 51.9415C17.6746 56.9544 17.9851 57.4754 18.82 57.2658C19.0694 57.2033 20.8083 56.0786 22.6844 54.7666C24.5603 53.4548 26.1774 52.3813 26.2778 52.3813C26.3783 52.3813 27.943 53.4226 29.7551 54.6952C33.6713 57.4455 33.7326 57.4779 34.3966 57.1549C34.8287 56.9447 35.1495 56.2809 36.8745 52.0259C37.9643 49.3378 38.9317 47.1384 39.0239 47.1384C39.1163 47.1384 40.4875 47.6897 42.0711 48.3635C44.8168 49.5317 44.9924 49.6369 45.8558 50.6295L46.7611 51.6704H45.902C44.8465 51.6704 43.944 52.1242 43.3916 52.9327C42.9986 53.5078 42.983 53.6469 43.0672 55.847C43.1765 58.7049 43.1767 58.1648 43.0667 60.5124L42.973 62.5118H22.7279H2.48261L2.48687 59.0906C2.48936 57.209 2.5704 55.3261 2.66726 54.9067C3.06235 53.1937 4.2805 51.415 5.62963 50.5813C6.42123 50.092 13.3546 47.0564 13.5595 47.1094C13.6402 47.1302 14.5791 49.3047 15.646 51.9415ZM63.939 55.6249L63.8875 57.0911H54.7345H45.5815L45.53 55.6249L45.4783 54.1586H54.7345H63.9907L63.939 55.6249ZM63.9764 61.09V62.5118H54.7345H45.4927V61.09V59.6682H54.7345H63.9764V61.09Z" fill="white"/>
</svg>
