<svg width="56" height="65" viewBox="0 0 56 65" fill="none" xmlns="http://www.w3.org/2000/svg">
<path fill-rule="evenodd" clip-rule="evenodd" d="M14.0559 4.19623C1.8628 8.02108 0.680581 8.41583 0.355605 8.77042L0 9.15843L0.0446097 22.0813C0.087567 34.5353 0.0990051 35.0643 0.359164 36.6649C1.37514 42.9141 3.71936 48.2787 7.49173 52.9877C11.8438 58.4203 17.9858 62.4806 24.6682 64.3425C27.4134 65.1075 27.5483 65.1219 29.0283 64.806C31.695 64.2372 35.2759 62.8786 37.8222 61.4699C40.6792 59.8893 43.0133 58.1417 45.332 55.8473C50.6285 50.6064 53.8412 44.2825 55.0771 36.6649C55.3365 35.066 55.3482 34.5224 55.3922 22.0818L55.4378 9.15957L55.0817 8.76826C54.7544 8.40871 53.6394 8.03696 41.3285 4.18352C33.96 1.87717 27.8119 -0.00545311 27.666 1.1868e-05C27.52 0.00560394 21.3955 1.89382 14.0559 4.19623ZM40.4018 6.566L52.8947 10.4752L52.8494 22.6761C52.8002 35.976 52.8188 35.6046 52.0328 38.944C50.989 43.3794 48.7433 47.9486 45.8367 51.5509C41.75 56.6156 35.7691 60.4511 29.4157 62.0813L27.7449 62.51L26.4889 62.2059C15.2041 59.4734 6.33302 50.6426 3.50369 39.3252C2.61658 35.7764 2.63844 36.1751 2.58837 22.6761L2.54312 10.4752L14.9719 6.57756C21.8077 4.43389 27.515 2.67467 27.6548 2.66832C27.7946 2.66197 33.5308 4.41584 40.4018 6.566ZM17.551 10.5566C8.79926 13.2997 7.79281 13.6424 7.4719 13.9876L7.11553 14.3711L7.15989 24.497C7.20323 34.4125 7.21022 34.6556 7.49554 36.2004C8.00531 38.9597 8.73939 41.1944 9.92847 43.6059C13.104 50.0459 18.6934 54.903 25.5578 57.1876C26.4857 57.4964 27.3844 57.7159 27.7184 57.7153C29.5981 57.712 36.345 54.5451 37.5674 53.0924C38.0168 52.5583 37.9966 51.9351 37.5143 51.4528C36.9182 50.8567 36.4313 50.9329 35.0864 51.8324C33.5163 52.8826 32.0909 53.6302 30.3873 54.2968C27.8957 55.2717 27.8724 55.2738 26.1107 54.6947C17.2585 51.7849 10.8416 43.7497 9.80621 34.2783C9.72411 33.5274 9.67225 29.6458 9.67378 24.3651L9.67632 15.686L18.7061 12.8712L27.7359 10.0562L36.719 12.8712L45.702 15.686L45.7392 24.1377C45.7629 29.4951 45.7263 33.1244 45.6395 34.0509C45.3867 36.7458 44.581 39.6722 43.4043 42.1701C42.6459 43.7798 42.6668 44.3708 43.4971 44.8001C43.9904 45.0553 44.61 44.9543 44.9824 44.558C45.7022 43.7918 47.2239 39.7047 47.7351 37.1647C48.2606 34.553 48.3074 33.4501 48.3074 23.6814V14.3556L47.9579 13.9775C47.6446 13.6387 46.5937 13.2823 37.8328 10.544C32.4563 8.86345 27.8809 7.49314 27.6654 7.49885C27.45 7.50445 22.8984 8.88048 17.551 10.5566ZM29.5971 26.2643L25.4298 30.4244L23.6828 28.6854C21.9303 26.941 21.4682 26.6166 20.9286 26.752C20.7688 26.7921 19.5147 27.9536 18.1414 29.3331C15.7465 31.7388 15.6446 31.8616 15.6446 32.3405C15.6446 32.8274 15.7576 32.9527 20.2536 37.4487L24.8627 42.0577H25.4291H25.9955L32.8234 35.2265C37.4261 30.6216 39.6788 28.2814 39.7355 28.0458C39.7819 27.8536 39.7806 27.5389 39.7328 27.3468C39.6366 26.9593 35.3851 22.5879 34.8101 22.2849C33.9982 21.8574 34.0546 21.8143 29.5971 26.2643ZM35.5679 26.4585L36.74 27.6357L31.0529 33.3218L25.3658 39.0079L22.0295 35.6699L18.6933 32.3319L19.9633 31.0666L21.2334 29.8013L23.0559 31.6084C24.8447 33.3819 24.8888 33.4154 25.4364 33.4154H25.9945L30.0655 29.349C32.3046 27.1125 34.1949 25.2824 34.2662 25.282C34.3375 25.2818 34.9233 25.8112 35.5679 26.4585ZM40.3641 47.2615C39.8932 47.4543 39.6073 47.8979 39.6073 48.4355C39.6073 48.8516 39.684 49.0153 40.0195 49.315C40.5837 49.8192 41.2021 49.818 41.7084 49.3118C42.6732 48.3469 41.6237 46.7461 40.3641 47.2615Z" fill="white"/>
</svg>
