<svg width="54" height="65" viewBox="0 0 54 65" fill="none" xmlns="http://www.w3.org/2000/svg">
<path fill-rule="evenodd" clip-rule="evenodd" d="M32.0336 0.179766C30.2041 0.603662 28.8569 1.35116 27.6371 2.61892C25.9609 4.36109 25.1919 6.28583 25.2088 8.69629C25.226 11.1346 26.3178 13.4923 28.1607 15.0706L28.6714 15.5081V22.2267V28.9453H24.8651H21.0587L21.058 25.9937C21.0576 24.3551 20.999 22.832 20.9263 22.5699C20.7706 22.0091 20.2784 21.3905 19.7848 21.135L19.4291 20.9509L19.3875 19.2566C19.3474 17.6262 19.3324 17.5447 18.9904 17.0964C18.4739 16.4195 18.0246 16.2378 16.6664 16.1568L15.4761 16.0857V13.6231V11.1603L15.1506 10.8346C14.8879 10.5718 14.7468 10.5238 14.421 10.5867C13.6227 10.741 13.573 10.9214 13.573 13.6616V16.123H12.8117H12.0504V14.9897C12.0504 13.9165 12.0327 13.8423 11.7161 13.5933C11.3347 13.293 11.173 13.2728 10.7381 13.471C10.296 13.6726 10.1473 14.0994 10.1473 15.1663V16.102L7.32425 16.1448C4.25509 16.1912 4.09205 16.2255 3.40831 16.9687C2.91679 17.5029 2.78839 18.0414 2.78839 19.5697V20.9473H2.21236C1.4955 20.9473 0.746927 21.3175 0.356653 21.8648L0.0605207 22.2803L0.0301972 42.8467L0 63.4131L0.283952 63.9114C0.460819 64.2215 0.779155 64.5211 1.12718 64.7048L1.68645 65H26.875H52.0636L52.6129 64.7339C52.9792 64.5564 53.2675 64.2883 53.4777 63.9293L53.7931 63.3907V55.626C53.7931 48.0306 53.7875 47.8557 53.5393 47.6074C53.1267 47.1946 52.3127 47.3152 52.0635 47.826C52.0029 47.9502 51.9248 51.4224 51.8899 55.542L51.8265 63.0322L50.1454 63.0676L48.4643 63.1031V56.8665C48.4643 51.2161 48.444 50.5955 48.2478 50.2633C47.8044 49.5124 47.7988 49.5117 41.2001 49.5117H35.1797L34.7486 49.8018C34.5022 49.9675 34.2525 50.2804 34.1659 50.5318C34.0573 50.8474 34.0125 52.6842 34.0073 57.0337L34.0002 63.0957H32.3644C30.9898 63.0957 30.7163 63.0636 30.6516 62.8949C30.6092 62.7844 30.5745 52.3232 30.5745 39.6477V16.6013L30.86 16.6846C32.1236 17.0534 33.0106 17.1601 34.2857 17.0969L35.6496 17.0294V17.7355C35.6496 18.5495 35.952 19.1513 36.5029 19.4337C36.7931 19.5825 38.1759 19.6205 44.3725 19.6498L51.8899 19.6855V20.6337V21.582H44.3978C36.13 21.582 36.401 21.5565 35.8983 22.3817C35.6786 22.7423 35.6505 23.0296 35.6501 24.9271C35.6496 27.295 35.7475 27.7078 36.4007 28.094C36.7352 28.2916 37.4292 28.3105 44.3286 28.3105H51.8899V29.3262V30.3418H48.4643C45.2077 30.3418 45.026 30.3544 44.7848 30.5957C44.3725 31.0083 44.4029 31.5479 44.8618 31.9604C45.1744 32.2414 45.2341 32.2461 48.5348 32.2461H51.8899V33.7061V35.166H44.7214H37.5528V33.7061V32.2461H39.5251C41.4501 32.2461 41.505 32.2386 41.8089 31.9344C42.2121 31.5311 42.216 30.9838 41.8185 30.6102C41.5241 30.3333 41.4561 30.3273 39.0294 30.3658L36.5421 30.4053L36.1276 30.8203L35.7131 31.2353V33.7061V36.1768L36.1278 36.5918L36.5426 37.0068L44.2108 37.0415L51.879 37.076L51.9162 40.7417C51.9507 44.1386 51.9711 44.427 52.1951 44.6744C52.5064 45.0183 53.2858 45.0379 53.5831 44.7092C53.7767 44.4952 53.7931 42.8095 53.7931 23.0431V1.60926L53.4777 1.07072C53.1219 0.463252 52.3279 0 51.6428 0C51.4098 0 48.9465 0.856553 46.122 1.91953L41.0219 3.83919L39.89 2.70029C38.6472 1.44968 37.668 0.830908 36.2206 0.381367C35.0849 0.0286914 33.0983 -0.0670312 32.0336 0.179766ZM35.2386 2.09549C36.9013 2.48765 38.4206 3.56205 39.3538 5.00551C40.7214 7.12093 40.7212 10.0196 39.3532 12.1332C36.6837 16.2577 30.8093 16.2577 28.1398 12.1332C26.7718 10.0196 26.7715 7.12093 28.1391 5.00551C29.6743 2.63085 32.5359 1.4578 35.2386 2.09549ZM51.8596 7.3968L51.8926 12.8223H46.5625C43.6309 12.8223 41.2322 12.8044 41.2322 12.7825C41.2322 12.7607 41.3698 12.4574 41.538 12.1087C42.3437 10.4376 42.5225 7.77372 41.9398 6.1213L41.7562 5.60066L42.2872 5.4002C42.5793 5.28988 44.7594 4.46151 47.132 3.55926C49.5046 2.65713 51.5315 1.9307 51.6362 1.94505C51.8014 1.96777 51.8308 2.68709 51.8596 7.3968ZM33.0853 3.52295C32.9792 3.64508 32.8572 3.89403 32.8141 4.07596C32.7597 4.30587 32.5515 4.50176 32.1321 4.7177C31.2812 5.15582 30.7959 5.88707 30.7276 6.83439C30.606 8.51449 31.8727 9.64844 33.8711 9.64844C34.6602 9.64844 34.8884 9.79075 34.8884 10.2832C34.8884 10.7903 34.6627 10.918 33.7663 10.918C32.9825 10.918 32.932 10.8987 32.5465 10.4524C32.0546 9.88305 31.4396 9.80992 31.0623 10.2761C30.4874 10.9865 31.0501 12.0776 32.2874 12.6514C32.613 12.8023 32.8088 12.9843 32.8337 13.1586C32.9271 13.813 33.8683 14.1116 34.3792 13.649C34.5197 13.5218 34.6349 13.298 34.6351 13.1517C34.6354 12.9561 34.8115 12.8018 35.3012 12.5684C37.2409 11.6435 37.2899 8.96492 35.385 7.99246C35.0429 7.8179 34.6416 7.74414 34.0335 7.74414C33.0523 7.74414 32.6046 7.52591 32.6046 7.0478C32.6046 6.5424 32.9233 6.34766 33.7505 6.34766C34.326 6.34766 34.5504 6.40415 34.7266 6.59331C35.0959 6.99004 35.5428 7.10607 35.9851 6.91996C36.3971 6.74667 36.5378 6.51739 36.5378 6.01986C36.5378 5.61831 35.6928 4.77306 35.0934 4.57514C34.7133 4.44958 34.6346 4.36338 34.6346 4.07228C34.6346 3.87905 34.5302 3.62642 34.4026 3.51089C34.0942 3.23172 33.3322 3.2387 33.0853 3.52295ZM51.8899 16.25V17.7734H44.7214H37.5528V17.0238V16.2741L38.105 15.9504C38.4087 15.7723 38.8993 15.424 39.1955 15.1766L39.7337 14.7266H45.8119H51.8899V16.25ZM17.3054 18.1044C17.4715 18.1681 17.5062 18.4204 17.5062 19.5644V20.9473H14.8417C12.3464 20.9473 12.1612 20.9634 11.9236 21.2012C11.5818 21.5432 11.5883 22.2306 11.9366 22.5462C12.1812 22.7679 12.4901 22.7934 15.6478 22.8516L19.0921 22.915L19.1269 42.7197C19.1459 53.6123 19.1305 62.6534 19.0925 62.8109L19.0234 63.0975L10.4935 63.0649L1.96368 63.0322L1.93158 42.9419L1.89948 22.8516H5.24499C8.43747 22.8516 8.60584 22.8395 8.92481 22.5884C9.34376 22.2587 9.38322 21.5792 9.00538 21.2012C8.77281 20.9685 8.5825 20.9473 6.72158 20.9473H4.69155V19.6206C4.69155 18.491 4.72453 18.2746 4.91358 18.1645C5.15389 18.0244 16.9483 17.9673 17.3054 18.1044ZM51.8899 24.9463V26.4062H44.7214H37.5528V24.9463V23.4863H44.7214H51.8899V24.9463ZM4.58979 25.73C3.90173 26.0692 3.8034 26.4158 3.8034 28.501C3.8034 31.3626 3.92457 31.4854 6.74696 31.4825C8.7605 31.4804 9.02301 31.4085 9.47736 30.7338C9.74266 30.3398 9.76664 30.1636 9.76664 28.6051C9.76664 25.754 9.53776 25.5172 6.78502 25.521C5.40434 25.5228 4.91548 25.5694 4.58979 25.73ZM12.0369 25.7076C11.3616 26.0749 11.2892 26.3486 11.2892 28.5317C11.2892 31.4033 11.3704 31.4846 14.2327 31.4839C16.2983 31.4834 16.734 31.3374 17.0697 30.5335C17.3227 29.9277 17.3227 27.0743 17.0697 26.4685C16.7322 25.6601 16.3013 25.5178 14.2074 25.5232C12.8675 25.5265 12.2778 25.5766 12.0369 25.7076ZM7.86348 28.501V29.5801H6.78502H5.70657V28.501V27.4219H6.78502H7.86348V28.501ZM15.3492 28.501V29.5801H14.2708H13.1923V28.501V27.4219H14.2708H15.3492V28.501ZM28.6714 33.5791V36.3086H24.8651H21.0587V33.5791V30.8496H24.8651H28.6714V33.5791ZM4.62164 33.3317C3.90846 33.6838 3.8034 34.0408 3.8034 36.1123C3.8034 38.9942 3.91201 39.1016 6.82499 39.1016C8.55192 39.1016 8.7468 39.0783 9.05423 38.8365C9.66831 38.353 9.76664 37.9872 9.76664 36.1839C9.76664 33.3764 9.52976 33.1344 6.78502 33.1382C5.46296 33.14 4.90978 33.1895 4.62164 33.3317ZM12.0756 33.3472C11.3808 33.6898 11.2892 34.0246 11.2892 36.2216C11.2892 39.0542 11.389 39.1449 14.4367 39.0792C16.2569 39.04 16.3597 39.0239 16.6737 38.7283C17.1712 38.2601 17.2841 37.6802 17.234 35.8493C17.165 33.3262 16.9474 33.1329 14.1797 33.1377C12.8839 33.1398 12.3977 33.1883 12.0756 33.3472ZM7.86348 36.1182V37.1973H6.78502H5.70657V36.1182V35.0391H6.78502H7.86348V36.1182ZM15.3492 36.1182V37.1973H14.2708H13.1923V36.1182V35.0391H14.2708H15.3492V36.1182ZM28.6714 38.9746V39.7363H24.8651H21.0587V38.9746V38.2129H24.8651H28.6714V38.9746ZM4.74458 40.875C4.59943 40.9337 4.32817 41.163 4.14191 41.3844C3.80658 41.7833 3.8034 41.8058 3.8034 43.7803C3.8034 46.6484 3.87572 46.7188 6.82499 46.7188C8.55192 46.7188 8.7468 46.6955 9.05423 46.4537C9.67034 45.9687 9.76664 45.6064 9.76639 43.7734C9.76614 41.0098 9.50096 40.7475 6.72158 40.7602C5.77952 40.7645 4.88986 40.8162 4.74458 40.875ZM12.0756 40.9643C11.3789 41.3079 11.2892 41.6394 11.2892 43.8687V45.8555L11.7206 46.2871L12.1519 46.7188H14.1849C16.1838 46.7188 16.2244 46.7133 16.606 46.392C17.1652 45.9211 17.2858 45.3596 17.234 43.4665C17.165 40.9434 16.9474 40.7501 14.1797 40.7549C12.8839 40.757 12.3977 40.8055 12.0756 40.9643ZM28.6714 52.3682V63.0957H24.8651H21.0587V52.3682V41.6406H24.8651H28.6714V52.3682ZM7.86348 43.7354V44.8145H6.78502H5.70657V43.7354V42.6562H6.78502H7.86348V43.7354ZM15.3492 43.7354V44.8145H14.2708H13.1923V43.7354V42.6562H14.2708H15.3492V43.7354ZM40.3441 57.2559V63.0957H38.1237H35.9034V57.2559V51.416H38.1237H40.3441V57.2559ZM46.5611 57.2559V63.0957H44.4042H42.2473V57.2559V51.416H44.4042H46.5611V57.2559Z" fill="white"/>
</svg>
