<svg width="47" height="47" viewBox="0 0 47 47" fill="none" xmlns="http://www.w3.org/2000/svg">
<path d="M40.1335 6.83275C37.9691 4.65805 35.3914 2.93395 32.5509 1.76089C29.7104 0.587837 26.6637 -0.010705 23.5885 0.000144908C10.7025 0.000144908 0.200653 10.4517 0.18885 23.2827C0.18885 27.3922 1.26883 31.3902 3.30782 34.9299L0 47L12.4051 43.7629C15.8368 45.6221 19.6815 46.5966 23.5885 46.5976H23.6003C36.4893 46.5976 46.9882 36.146 47 23.3033C47.0029 20.2425 46.3975 17.2115 45.2185 14.3847C44.0395 11.5579 42.3104 8.99131 40.1306 6.83275H40.1335ZM23.5885 42.6555C20.1036 42.6566 16.6828 41.7231 13.6857 39.953L12.9775 39.53L5.61828 41.4511L7.5835 34.3042L7.12318 33.5669C5.17509 30.4834 4.1448 26.9135 4.15174 23.2709C4.15174 12.6196 12.8772 3.93051 23.6003 3.93051C26.1549 3.92595 28.6852 4.42481 31.0452 5.39835C33.4052 6.37188 35.5483 7.80083 37.3509 9.6028C39.1599 11.3978 40.5939 13.5315 41.5703 15.8809C42.5468 18.2303 43.0463 20.749 43.04 23.2915C43.0282 33.981 34.3028 42.6555 23.5885 42.6555ZM34.2556 28.1619C33.6743 27.8711 30.8032 26.464 30.2632 26.2643C29.7261 26.0733 29.3337 25.9734 28.9501 26.5551C28.5576 27.1337 27.4363 28.4527 27.0999 28.8316C26.7636 29.2223 26.4154 29.2664 25.8311 28.9785C25.2498 28.6847 23.3643 28.0737 21.1335 26.0851C19.3925 24.5429 18.227 22.6335 17.8788 22.0548C17.5424 21.4732 17.8463 21.1618 18.1384 20.871C18.3951 20.6125 18.7197 20.1895 19.0119 19.8546C19.3069 19.5198 19.4043 19.273 19.5961 18.8853C19.7879 18.4916 19.6964 18.1568 19.5519 17.866C19.4043 17.5752 18.2388 14.7052 17.746 13.5479C17.2739 12.4052 16.7929 12.5638 16.4329 12.5491C16.0965 12.5285 15.704 12.5285 15.3116 12.5285C15.0152 12.5359 14.7236 12.6041 14.455 12.729C14.1863 12.8538 13.9465 13.0326 13.7506 13.2541C13.2136 13.8357 11.7116 15.2428 11.7116 18.1127C11.7116 20.9826 13.8067 23.7409 14.1018 24.1316C14.3909 24.5223 18.2152 30.3944 24.0842 32.9206C25.4711 33.5228 26.5629 33.8782 27.4157 34.1485C28.8173 34.595 30.0832 34.5274 31.0923 34.3835C32.2136 34.2131 34.5477 32.9735 35.0405 31.6134C35.5244 30.2504 35.5244 29.0872 35.3769 28.8434C35.2323 28.5966 34.8398 28.4527 34.2556 28.1619Z" fill="white"/>
</svg>
