<svg width="753" height="232" viewBox="0 0 753 232" fill="none" xmlns="http://www.w3.org/2000/svg">
<path d="M569.821 217.296H676.153V211.928C676.153 202.528 679.382 197.156 686.898 194.208V193.671H657.086C655.475 193.671 654.947 193.403 653.873 192.324L638.295 176.214L622.182 192.598C621.377 193.403 620.839 193.671 619.229 193.671H595.33C593.987 193.671 593.987 192.866 594.793 192.055L625.402 162.251L594.257 132.179C593.451 131.374 593.719 130.568 595.062 130.568H619.229C620.571 130.568 621.107 130.836 621.913 131.642L638.833 148.562L654.679 131.642C655.475 130.836 656.011 130.568 657.086 130.568H720.193C734.695 130.568 747.581 135.4 752.413 149.895H752.949V54.5776C752.949 37.9269 744.359 29.3362 727.717 29.3362H569.821C553.178 29.3362 544.581 37.9269 544.581 54.5776V192.055C544.581 208.707 553.178 217.296 569.821 217.296ZM651.986 162.251L676.153 185.614V138.89L651.986 162.251ZM696.293 217.296H727.717C744.359 217.296 752.949 208.707 752.949 192.055V174.608H752.413C747.581 189.103 735.233 193.671 720.461 193.671H697.098C696.562 193.671 696.293 193.935 696.293 194.476V217.296ZM696.293 174.608H719.923C728.782 174.608 734.955 170.576 734.955 162.251C734.955 153.931 728.782 149.895 719.923 149.895H696.293V174.608Z" fill="white"/>
<path d="M131.508 164.695C131.508 169.207 130.857 173.802 129.572 178.487C128.109 183.466 125.911 188.066 122.984 192.283C119.879 196.733 116.159 200.598 111.825 203.877C107.492 207.277 102.163 209.731 95.836 211.258C95.2533 211.374 94.5667 211.521 93.7747 211.694C92.9827 211.871 92.0907 212.045 91.0933 212.223C89.4573 212.575 88.3453 212.747 87.7573 212.747H0V179.631H33.2053H52.096H77.308H77.916H83.54C87.6427 179.631 91.1827 178.151 94.168 175.198C97.1587 172.239 98.648 168.682 98.648 164.522C98.648 160.362 97.1587 156.79 94.168 153.806C91.1827 150.821 87.6427 149.325 83.54 149.325H77.916H77.308H52.096H33.2053H0V114.099H33.2053H52.096H74.8427H79.852H83.456C87.6107 114.099 91.1827 112.619 94.168 109.661C97.1587 106.707 98.648 103.119 98.648 98.9021C98.648 94.6847 97.1587 91.0847 94.168 88.0954C91.1827 85.1114 87.6107 83.6154 83.456 83.6154H79.852H74.8427H52.096H33.2053H0V50.7607H88.812C89.688 50.7607 90.6533 50.8807 91.7133 51.1114C92.3533 51.29 92.9987 51.4634 93.644 51.6407C94.284 51.8154 94.96 51.994 95.6627 52.1674C96.896 52.6394 98.0347 53.0794 99.0893 53.4887C100.495 53.8394 101.113 54.0127 100.935 54.0127C101.401 54.25 102.341 54.6581 103.747 55.2461C105.793 56.3581 106.968 56.9714 107.261 57.0874C110.713 58.9647 113.788 61.126 116.484 63.5861C119.527 66.5194 121.872 69.2994 123.513 71.9327C125.328 74.6287 126.965 77.6714 128.429 81.0714C129.541 84.0567 130.301 87.0407 130.711 90.0314C131.004 91.6101 131.215 93.3674 131.329 95.298C131.445 96.7034 131.508 97.9367 131.508 98.9914C131.508 104.378 130.537 109.882 128.601 115.505C126.671 121.479 123.451 126.925 118.939 131.846C119.348 132.255 119.643 132.607 119.82 132.901C119.999 133.131 120.172 133.351 120.345 133.557C120.523 133.761 120.671 133.897 120.785 133.955C124.652 137.994 127.432 142.915 129.132 148.711C130.711 154.157 131.508 159.486 131.508 164.695Z" fill="white"/>
<path d="M248.89 83.5318L220.771 97.4958C219.371 94.6838 217.671 92.3705 215.683 90.5558C213.69 88.6825 211.518 87.1038 209.178 85.8132C206.661 84.5852 204.231 83.7038 201.887 83.1798C199.605 82.7078 197.323 82.4772 195.035 82.4772C192.459 82.4772 190.294 82.6505 188.537 83.0012C186.547 83.2372 184.465 83.9412 182.299 85.1105C180.546 85.9865 179.078 87.4545 177.907 89.5012C176.675 91.5518 176.062 94.0705 176.062 97.0558C176.062 99.1638 176.79 101.624 178.259 104.436C179.723 107.19 182.153 109.446 185.551 111.198C185.845 111.318 186.401 111.639 187.219 112.169C188.274 112.751 188.887 113.045 189.066 113.045C191.406 114.508 194.422 116.151 198.11 117.965C200.743 119.371 203.823 120.893 207.333 122.534C208.391 123.116 209.326 123.614 210.143 124.024C210.617 124.26 211.518 124.727 212.871 125.431C215.097 126.543 216.559 127.245 217.262 127.538C218.726 128.3 220.101 129.065 221.391 129.821C226.075 132.517 229.827 135.329 232.638 138.256C235.565 141.42 237.822 144.698 239.401 148.097C240.979 151.492 242.091 154.976 242.737 158.548C243.439 161.768 243.791 165.34 243.791 169.264C243.791 173.54 243.266 177.553 242.207 181.298C241.037 185.516 239.369 189.177 237.202 192.284C234.622 195.793 231.521 198.93 227.89 201.678C224.025 204.612 219.225 207.156 213.486 209.322C213.071 209.501 211.55 209.968 208.917 210.728C207.51 211.08 205.663 211.404 203.382 211.693C202.386 211.813 201.421 211.929 200.481 212.045C199.547 212.165 198.582 212.224 197.585 212.224C194.889 212.338 193.19 212.396 192.486 212.396H191.259C189.969 212.396 188.977 212.369 188.274 212.312C187.686 212.312 187.114 212.297 186.558 212.265C186.002 212.238 185.462 212.192 184.933 212.134C184.759 212.134 183.851 212.018 182.215 211.782C178.815 211.373 175.186 210.554 171.319 209.322C167.569 208.268 163.765 206.632 159.899 204.401C155.859 202.24 152.23 199.601 149.009 196.496C145.494 193.28 142.503 189.53 140.049 185.254C139.813 184.902 139.593 184.52 139.387 184.11C139.178 183.701 138.962 183.234 138.727 182.705C138.023 181.42 137.53 180.512 137.237 179.981L164.73 166.19H165.345C166.519 168.886 168.187 171.2 170.354 173.13C172.405 175.182 174.598 176.734 176.938 177.789C179.167 178.901 181.538 179.72 184.057 180.245C186.517 180.774 188.773 181.036 190.818 181.036C193.573 181.036 195.829 180.864 197.585 180.512C199.751 180.218 201.83 179.514 203.823 178.402C205.517 177.464 206.986 176.032 208.213 174.096C209.389 172.166 209.971 169.673 209.971 166.632C209.971 160.305 205.663 154.949 197.061 150.553C196.358 150.322 195.393 149.85 194.159 149.146C192.927 148.329 191.374 147.452 189.506 146.513C188.562 146.046 187.645 145.564 186.737 145.065C185.825 144.566 184.879 144.053 183.883 143.529C181.302 142.238 179.577 141.362 178.701 140.89C177.997 140.538 177.205 140.16 176.329 139.752C175.269 139.221 174.303 138.786 173.429 138.434C172.783 138.084 172.095 137.732 171.367 137.38C170.631 137.029 169.887 136.62 169.121 136.148C168.361 135.796 167.615 135.418 166.886 135.004C166.153 134.594 165.434 134.217 164.73 133.865C160.161 131.521 156.385 128.74 153.399 125.52C150.466 122.298 148.185 118.988 146.543 115.595C144.906 112.431 143.737 108.916 143.033 105.05C142.389 101.42 142.063 97.8785 142.063 94.4212C142.063 94.8932 142.126 93.6612 142.242 90.7345C142.593 87.3932 142.829 85.5198 142.945 85.1105C142.766 85.4612 142.945 84.8158 143.469 83.1798C143.531 82.2985 143.737 81.5385 144.087 80.8932C144.382 79.9012 144.759 78.9305 145.231 77.9972C145.757 76.7638 146.313 75.6838 146.899 74.7452C148.011 72.4052 149.711 70.0918 151.994 67.8038C153.635 66.0465 155.797 64.1158 158.493 62.0078C161.011 60.2505 163.414 58.6972 165.701 57.3492C168.271 56.0052 170.59 54.9772 172.637 54.2758C175.799 53.2212 179.314 52.4025 183.181 51.8145C186.695 51.2905 190.147 51.0278 193.546 51.0278C193.955 51.0852 194.333 51.1118 194.69 51.1118C194.805 51.1745 195.77 51.2585 197.585 51.3798C198.11 51.4372 198.655 51.4785 199.211 51.5105C199.767 51.5425 200.366 51.5532 201.011 51.5532C201.83 51.6105 202.799 51.6412 203.913 51.6412C206.839 52.0505 210.438 52.8692 214.718 54.1012C218.637 55.2718 222.471 56.9718 226.223 59.1958C230.262 61.5985 233.866 64.2625 237.023 67.1905C240.538 70.3532 243.529 74.0412 245.983 78.2585L247.306 80.8932C247.599 81.4225 247.871 81.9052 248.141 82.3465C248.402 82.7812 248.649 83.1798 248.89 83.5318Z" fill="white"/>
<path d="M296.911 212.663H263.799V50.8489H296.911V212.663Z" fill="white"/>
<path d="M426.563 231.111H430.835V8.68901e-06H426.563V231.111Z" fill="white"/>
</svg>
