<svg width="1108" height="238" viewBox="0 0 1108 238" fill="none" xmlns="http://www.w3.org/2000/svg">
<path d="M924.674 217.742H1031.01V212.374C1031.01 202.974 1034.24 197.601 1041.75 194.653V194.116H1011.94C1010.33 194.116 1009.8 193.848 1008.73 192.77L993.148 176.66L977.035 193.042C976.23 193.848 975.693 194.116 974.082 194.116H950.183C948.841 194.116 948.841 193.312 949.646 192.501L980.255 162.697L949.11 132.625C948.305 131.82 948.573 131.014 949.915 131.014H974.082C975.425 131.014 975.961 131.282 976.766 132.088L993.686 149.008L1009.53 132.088C1010.33 131.282 1010.86 131.014 1011.94 131.014H1075.05C1089.55 131.014 1102.43 135.846 1107.26 150.341H1107.8V55.0235C1107.8 38.3715 1099.21 29.7822 1082.57 29.7822H924.674C908.031 29.7822 899.434 38.3715 899.434 55.0235V192.501C899.434 209.153 908.031 217.742 924.674 217.742ZM1006.84 162.697L1031.01 186.058V139.336L1006.84 162.697ZM1051.15 217.742H1082.57C1099.21 217.742 1107.8 209.153 1107.8 192.501V175.053H1107.26C1102.43 189.548 1090.09 194.116 1075.31 194.116H1051.95C1051.42 194.116 1051.15 194.381 1051.15 194.921V217.742ZM1051.15 175.053H1074.78C1083.64 175.053 1089.81 171.022 1089.81 162.697C1089.81 154.376 1083.64 150.341 1074.78 150.341H1051.15V175.053Z" fill="white"/>
<path fill-rule="evenodd" clip-rule="evenodd" d="M163.3 160.525C165.168 156.492 166.784 152.992 163.258 149.567C159.974 153.033 161.328 156.507 163.3 160.525ZM155.598 170.513C154.876 171.557 154.665 171.793 154.54 172.055C151.202 179.064 152.704 186.529 152.729 193.805C152.745 196.968 155.064 199.617 158.337 200.1C161.569 200.572 165.005 200.552 168.225 200.021C171.85 199.424 173.77 196.449 173.865 192.756C173.949 189.52 174.373 186.267 174.106 183.067C173.776 179.101 172.889 175.183 172.249 171.237C171.913 171.275 171.573 171.311 171.232 171.348C171.101 171.725 170.906 172.108 170.838 172.507C169.973 177.673 169.102 182.852 168.257 188.024C167.601 192.011 164.081 194.235 161.086 192.189C159.737 191.272 158.704 189.273 158.369 187.593C157.277 182.196 156.569 176.704 155.598 170.513V170.513ZM163.09 126.317C167.517 120.379 171.462 114.54 175.964 109.173C194.202 87.456 217.752 75.8826 245.828 72.9773C259.268 71.5919 272.744 70.3226 286.074 68.1613C297.972 66.2413 308.736 61.4106 316.993 52.0613C319.065 49.7013 322.082 49.6226 324.165 51.4746C326.137 53.2373 326.3 56.3839 324.328 58.7186C316.778 67.6413 307.094 73.5333 295.884 75.9933C284.138 78.58 272.146 80.1586 260.181 81.5013C246.058 83.096 231.921 84.188 218.597 89.748C198.63 98.0733 183.978 112.327 172.789 130.488C172.15 131.537 171.636 132.685 170.869 133.629C168.786 136.191 168.886 138.603 170.864 140.748C175.186 134.747 179.132 128.352 183.973 122.719C199.932 104.164 220.773 93.976 244.38 89.2386C254.221 87.272 264.346 86.748 274.24 84.9893C282.34 83.548 290.329 81.3906 298.297 79.2933C302.2 78.2706 304.876 78.8986 305.893 81.8013C306.942 84.7906 305.536 87.2773 301.864 88.7466C290.942 93.084 279.428 94.648 267.861 95.8386C251.094 97.5426 234.706 100.501 219.389 108.04C200.273 117.452 186.376 131.752 177.537 151.145C175.89 154.771 177.862 157.304 178.776 160.399C181.629 155.012 184.189 149.656 187.2 144.568C192.698 135.256 199.916 127.319 207.826 119.991C210.534 117.488 213.508 117.445 215.549 119.676C217.51 121.827 217.165 124.937 214.552 127.36C202.497 138.545 192.74 151.287 187.484 167.104C184.781 175.24 183.592 183.612 183.812 192.184C184.021 200.567 179.1 207.429 171.064 209.705C165.781 211.2 160.446 211.164 155.18 209.621C147.966 207.508 142.51 200.688 142.757 193.505C143.576 170.031 134.285 150.721 118.668 133.955C116.528 131.668 114.22 129.544 111.99 127.345C109.404 124.801 109.046 121.831 111.066 119.665C113.138 117.436 116.045 117.504 118.778 120.027C130.738 131.08 140.612 143.644 146.712 158.909C146.917 159.424 147.164 159.923 147.457 160.572C149.922 156.739 150.144 153.292 148.092 149.068C134.342 120.751 110.82 105.523 80.9864 99.2066C68.4437 96.552 55.5291 95.7386 42.8651 93.5613C36.5331 92.476 30.3384 90.3933 24.189 88.4146C20.7597 87.3186 19.589 84.4133 20.7797 81.5586C21.8237 79.036 24.5037 77.9186 27.5784 79.1506C39.145 83.804 51.3744 85.1466 63.597 86.4173C81.3024 88.248 98.3984 92.0813 114.293 100.444C131.28 109.383 144.604 122.021 153.952 138.807C154.382 139.568 154.853 140.308 155.368 141.163C157.445 138.776 157.618 136.767 155.977 133.965C146.166 117.268 133.745 103.229 116.549 93.8186C103.329 86.5893 89.0077 83.6466 74.177 82.2933C59.725 80.988 45.173 80.3 31.1037 76.256C20.4864 73.2133 11.0064 68.2239 3.41571 60.0293C2.80771 59.3746 2.12505 58.7399 1.70638 57.9733C0.451712 55.6919 0.410376 53.3573 2.43438 51.5479C4.53838 49.6693 7.19304 49.4493 9.08104 51.5693C20.9944 64.9666 37.0424 68.3866 53.7037 70.3479C66.3451 71.8439 79.125 72.5786 91.6464 74.7559C120.956 79.8386 142.904 96.264 159.345 120.593C160.593 122.431 161.778 124.308 163.09 126.317" fill="white"/>
<path d="M90.3873 64.8455C89.3433 66.1201 87.4607 66.3148 86.1847 65.2708C84.906 64.2268 84.7167 62.3441 85.7553 61.0628L90.3873 64.8455ZM90.3873 64.8455L85.7553 61.0628L87.55 58.9228L89.406 56.8401L91.306 54.8161L93.262 52.8535L95.2607 50.9495L97.3073 49.1028L99.41 47.3148L101.55 45.5935L103.738 43.9361L105.962 42.3308L108.229 40.8041L110.542 39.3348L112.886 37.9241L115.269 36.5868L117.687 35.3121L120.137 34.1108L122.623 32.9775L125.135 31.9068L127.681 30.9108L130.251 29.9708L132.847 29.1161L135.47 28.3295L138.119 27.6108L140.785 26.9655L143.47 26.3935L146.177 25.9001L148.905 25.4748L151.654 25.1295L154.407 24.8561L157.182 24.6668L159.963 24.5415L162.754 24.5055V30.4841L160.131 30.5215L157.518 30.6321L154.911 30.8161L152.321 31.0681L149.745 31.3935L147.185 31.7908L144.635 32.2588L142.106 32.7988L139.599 33.4015L137.113 34.0735L134.646 34.8135L132.207 35.6215L129.789 36.4921L127.397 37.4361L125.037 38.4428L122.702 39.5135L120.399 40.6468L118.127 41.8375L115.887 43.1015L113.685 44.4135L111.513 45.7975L109.377 47.2401L107.285 48.7348L105.233 50.3041L103.218 51.9148L101.251 53.5988L99.3207 55.3295L97.442 57.1228L95.602 58.9708L93.8233 60.8748L92.0767 62.8308L90.3873 64.8455ZM162.754 30.4841V24.5055L165.67 24.5521L168.571 24.6788L171.462 24.8881L174.331 25.1775L177.191 25.5601L180.023 26.0215L182.841 26.5561L185.637 27.1748L188.406 27.8668L191.155 28.6535L193.873 29.5041L196.569 30.4375L199.223 31.4455L201.857 32.5201L204.458 33.6801L207.019 34.9068L209.547 36.2081L212.034 37.5828L214.489 39.0308L216.891 40.5521L219.262 42.1255L221.581 43.7841L223.858 45.5041L226.087 47.2975L228.265 49.1548L230.394 51.0748L232.471 53.0588L234.491 55.1095L236.459 57.2241L238.367 59.3961L240.225 61.6295L242.014 63.9321L237.245 67.5415L235.557 65.3748L233.819 63.2721L232.031 61.2321L230.179 59.2428L228.275 57.3228L226.329 55.4508L224.33 53.6455L222.274 51.9041L220.181 50.2201L218.041 48.6041L215.858 47.0508L213.639 45.5561L211.373 44.1348L209.07 42.7761L206.73 41.4855L204.354 40.2588L201.951 39.1041L199.506 38.0121L197.035 37.0001L194.529 36.0615L191.994 35.1801L189.445 34.3775L186.863 33.6481L184.262 32.9921L181.634 32.4095L178.985 31.9068L176.325 31.4708L173.634 31.1201L170.938 30.8468L168.226 30.6428L165.493 30.5215L162.754 30.4841ZM242.014 63.9321C243.011 65.2495 242.749 67.1175 241.431 68.1188C240.121 69.1161 238.242 68.8535 237.245 67.5415L242.014 63.9321Z" fill="white"/>
<path d="M71.5492 107.726C68.4598 117.294 66.8905 127.287 66.8905 137.334C66.8905 190.569 110.044 233.721 163.279 233.721C216.515 233.721 259.667 190.569 259.667 137.334C259.667 127.913 258.287 118.542 255.564 109.519" stroke="white" stroke-width="6.66667" stroke-miterlimit="22.926" stroke-linecap="round" stroke-linejoin="round"/>
<path d="M486.362 165.141C486.362 169.653 485.711 174.248 484.426 178.933C482.963 183.912 480.764 188.512 477.838 192.729C474.732 197.178 471.012 201.044 466.679 204.324C462.346 207.722 457.016 210.177 450.69 211.704C450.107 211.82 449.42 211.966 448.628 212.14C447.836 212.318 446.944 212.49 445.947 212.669C444.311 213.021 443.199 213.194 442.611 213.194H354.854V180.077H388.059H406.95H432.162H432.77H438.394C442.496 180.077 446.036 178.597 449.022 175.644C452.012 172.685 453.502 169.128 453.502 164.969C453.502 160.808 452.012 157.236 449.022 154.252C446.036 151.266 442.496 149.772 438.394 149.772H432.77H432.162H406.95H388.059H354.854V114.545H388.059H406.95H429.696H434.706H438.31C442.464 114.545 446.036 113.065 449.022 110.108C452.012 107.153 453.502 103.565 453.502 99.3477C453.502 95.1303 452.012 91.5317 449.022 88.541C446.036 85.557 442.464 84.061 438.31 84.061H434.706H429.696H406.95H388.059H354.854V51.2063H443.666C444.542 51.2063 445.507 51.3263 446.567 51.557C447.207 51.7357 447.852 51.909 448.498 52.0877C449.138 52.261 449.814 52.4397 450.516 52.613C451.75 53.085 452.888 53.525 453.943 53.9343C455.348 54.285 455.967 54.4583 455.788 54.4583C456.255 54.6957 457.195 55.105 458.6 55.6917C460.647 56.8037 461.822 57.417 462.115 57.533C465.567 59.4103 468.642 61.573 471.338 64.033C474.38 66.965 476.726 69.745 478.367 72.3783C480.182 75.0743 481.819 78.117 483.283 81.517C484.395 84.5023 485.155 87.4863 485.564 90.477C485.858 92.057 486.068 93.813 486.183 95.7437C486.299 97.149 486.362 98.3823 486.362 99.437C486.362 104.825 485.391 110.328 483.455 115.95C481.524 121.926 478.304 127.372 473.792 132.292C474.202 132.701 474.496 133.053 474.674 133.346C474.852 133.577 475.026 133.797 475.199 134.002C475.376 134.206 475.524 134.342 475.639 134.401C479.506 138.44 482.286 143.361 483.986 149.157C485.564 154.602 486.362 159.932 486.362 165.141Z" fill="white"/>
<path d="M603.743 83.9778L575.625 97.9418C574.225 95.1298 572.525 92.8165 570.537 91.0018C568.543 89.1285 566.371 87.5498 564.031 86.2591C561.514 85.0325 559.085 84.1511 556.741 83.6258C554.458 83.1538 552.177 82.9231 549.889 82.9231C547.314 82.9231 545.147 83.0965 543.39 83.4485C541.401 83.6845 539.318 84.3871 537.153 85.5565C535.399 86.4325 533.931 87.9018 532.761 89.9471C531.529 91.9991 530.915 94.5165 530.915 97.5018C530.915 99.6098 531.643 102.07 533.113 104.883C534.577 107.636 537.006 109.892 540.405 111.644C540.698 111.764 541.254 112.086 542.073 112.615C543.127 113.198 543.741 113.491 543.919 113.491C546.259 114.954 549.275 116.596 552.963 118.411C555.597 119.816 558.677 121.339 562.186 122.98C563.245 123.563 564.179 124.06 564.997 124.47C565.47 124.706 566.371 125.172 567.725 125.876C569.95 126.988 571.413 127.691 572.115 127.984C573.579 128.746 574.954 129.511 576.245 130.267C580.929 132.963 584.68 135.775 587.491 138.702C590.419 141.866 592.675 145.144 594.254 148.543C595.833 151.938 596.945 155.422 597.59 158.994C598.293 162.214 598.645 165.786 598.645 169.711C598.645 173.986 598.119 177.999 597.06 181.746C595.89 185.963 594.222 189.623 592.055 192.73C589.475 196.239 586.374 199.376 582.743 202.124C578.878 205.058 574.078 207.602 568.339 209.768C567.925 209.947 566.403 210.414 563.77 211.174C562.365 211.526 560.517 211.851 558.235 212.14C557.239 212.26 556.274 212.375 555.334 212.491C554.401 212.611 553.435 212.67 552.438 212.67C549.742 212.784 548.043 212.842 547.339 212.842H546.113C544.822 212.842 543.83 212.815 543.127 212.758C542.539 212.758 541.967 212.743 541.411 212.711C540.857 212.684 540.315 212.638 539.786 212.58C539.613 212.58 538.705 212.464 537.069 212.228C533.669 211.819 530.039 211 526.173 209.768C522.422 208.714 518.618 207.078 514.753 204.847C510.713 202.686 507.083 200.048 503.862 196.943C500.347 193.727 497.357 189.976 494.902 185.7C494.666 185.348 494.446 184.966 494.241 184.556C494.031 184.147 493.815 183.68 493.581 183.151C492.877 181.866 492.383 180.958 492.09 180.427L519.583 166.638H520.198C521.373 169.334 523.041 171.646 525.207 173.576C527.258 175.628 529.451 177.18 531.791 178.235C534.021 179.347 536.391 180.166 538.91 180.691C541.37 181.22 543.626 181.482 545.671 181.482C548.426 181.482 550.682 181.31 552.438 180.958C554.605 180.664 556.683 179.96 558.677 178.848C560.37 177.91 561.839 176.478 563.066 174.542C564.242 172.612 564.825 170.12 564.825 167.078C564.825 160.751 560.517 155.395 551.914 150.999C551.211 150.768 550.246 150.296 549.013 149.592C547.781 148.775 546.227 147.898 544.361 146.959C543.415 146.492 542.498 146.01 541.59 145.511C540.678 145.014 539.733 144.499 538.737 143.975C536.155 142.684 534.43 141.808 533.554 141.336C532.85 140.984 532.059 140.607 531.182 140.198C530.122 139.667 529.157 139.232 528.282 138.88C527.637 138.53 526.949 138.178 526.221 137.827C525.485 137.475 524.741 137.066 523.975 136.594C523.214 136.242 522.469 135.864 521.741 135.45C521.006 135.04 520.287 134.663 519.583 134.311C515.014 131.967 511.238 129.187 508.253 125.966C505.321 122.744 503.038 119.434 501.397 116.04C499.759 112.876 498.59 109.362 497.886 105.496C497.242 101.866 496.917 98.3258 496.917 94.8671C496.917 95.3405 496.979 94.1071 497.095 91.1805C497.446 87.8391 497.682 85.9658 497.798 85.5565C497.619 85.9085 497.798 85.2631 498.322 83.6258C498.385 82.7445 498.59 81.9845 498.941 81.3391C499.235 80.3471 499.613 79.3765 500.085 78.4431C500.61 77.2098 501.166 76.1298 501.753 75.1911C502.865 72.8511 504.565 70.5378 506.847 68.2511C508.489 66.4938 510.65 64.5618 513.346 62.4538C515.865 60.6965 518.267 59.1445 520.554 57.7951C523.125 56.4525 525.443 55.4245 527.49 54.7218C530.653 53.6671 534.167 52.8485 538.034 52.2605C541.549 51.7365 545.001 51.4751 548.399 51.4751C548.809 51.5325 549.186 51.5578 549.543 51.5578C549.658 51.6205 550.623 51.7045 552.438 51.8258C552.963 51.8831 553.509 51.9258 554.065 51.9565C554.621 51.9885 555.219 51.9991 555.865 51.9991C556.683 52.0565 557.653 52.0885 558.766 52.0885C561.693 52.4978 565.291 53.3151 569.571 54.5485C573.49 55.7178 577.325 57.4178 581.077 59.6418C585.115 62.0445 588.719 64.7085 591.876 67.6365C595.391 70.7991 598.382 74.4885 600.837 78.7058L602.159 81.3391C602.452 81.8685 602.726 82.3511 602.994 82.7925C603.255 83.2271 603.502 83.6258 603.743 83.9778Z" fill="white"/>
<path d="M651.764 213.109H618.652V51.2962H651.764V213.109Z" fill="white"/>
<path d="M781.417 231.556H785.689V0.445652H781.417V231.556Z" fill="white"/>
</svg>
