<svg width="326" height="214" viewBox="0 0 326 214" fill="none" xmlns="http://www.w3.org/2000/svg">
<path fill-rule="evenodd" clip-rule="evenodd" d="M163.3 136.525C165.168 132.492 166.784 128.992 163.258 125.567C159.974 129.033 161.328 132.507 163.3 136.525ZM155.598 146.513C154.876 147.557 154.665 147.793 154.54 148.055C151.202 155.064 152.704 162.529 152.729 169.805C152.745 172.968 155.064 175.617 158.337 176.1C161.569 176.572 165.005 176.552 168.225 176.021C171.85 175.424 173.77 172.449 173.865 168.756C173.949 165.52 174.373 162.267 174.106 159.067C173.776 155.101 172.889 151.183 172.249 147.237C171.913 147.275 171.573 147.311 171.232 147.348C171.101 147.725 170.906 148.108 170.838 148.507C169.973 153.673 169.102 158.852 168.257 164.024C167.601 168.011 164.081 170.235 161.086 168.189C159.737 167.272 158.704 165.273 158.369 163.593C157.277 158.196 156.569 152.704 155.598 146.513ZM163.09 102.317C167.517 96.3786 171.462 90.54 175.964 85.1733C194.202 63.456 217.752 51.8826 245.828 48.9773C259.268 47.5919 272.744 46.3226 286.074 44.1613C297.972 42.2413 308.736 37.4106 316.993 28.0613C319.065 25.7013 322.082 25.6226 324.165 27.4746C326.137 29.2373 326.3 32.3839 324.328 34.7186C316.778 43.6413 307.094 49.5333 295.884 51.9933C284.138 54.58 272.146 56.1586 260.181 57.5013C246.058 59.096 231.921 60.188 218.597 65.748C198.63 74.0733 183.978 88.3266 172.789 106.488C172.15 107.537 171.636 108.685 170.869 109.629C168.786 112.191 168.886 114.603 170.864 116.748C175.186 110.747 179.132 104.352 183.973 98.7186C199.932 80.164 220.773 69.976 244.38 65.2386C254.221 63.272 264.346 62.7479 274.24 60.9893C282.34 59.548 290.329 57.3906 298.297 55.2933C302.2 54.2706 304.876 54.8986 305.893 57.8013C306.942 60.7906 305.536 63.2773 301.864 64.7466C290.942 69.084 279.428 70.6479 267.861 71.8386C251.094 73.5426 234.706 76.5013 219.389 84.04C200.273 93.452 186.376 107.752 177.537 127.145C175.89 130.771 177.862 133.304 178.776 136.399C181.629 131.012 184.189 125.656 187.2 120.568C192.698 111.256 199.916 103.319 207.826 95.9906C210.534 93.488 213.508 93.4453 215.549 95.676C217.51 97.8266 217.165 100.937 214.552 103.36C202.497 114.545 192.74 127.287 187.484 143.104C184.781 151.24 183.592 159.612 183.812 168.184C184.021 176.567 179.1 183.429 171.064 185.705C165.781 187.2 160.446 187.164 155.18 185.621C147.966 183.508 142.51 176.688 142.757 169.505C143.576 146.031 134.285 126.721 118.668 109.955C116.528 107.668 114.22 105.544 111.99 103.345C109.404 100.801 109.046 97.8306 111.066 95.6653C113.138 93.436 116.045 93.504 118.778 96.0266C130.738 107.08 140.612 119.644 146.712 134.909C146.917 135.424 147.164 135.923 147.457 136.572C149.922 132.739 150.144 129.292 148.092 125.068C134.342 96.7506 110.82 81.5226 80.9863 75.2066C68.4436 72.552 55.5289 71.7386 42.8649 69.5613C36.5329 68.476 30.3383 66.3933 24.1889 64.4146C20.7596 63.3186 19.5889 60.4133 20.7796 57.5586C21.8236 55.0359 24.5036 53.9186 27.5783 55.1506C39.1449 59.804 51.3743 61.1466 63.5969 62.4173C81.3023 64.2479 98.3983 68.0813 114.293 76.444C131.28 85.3826 144.604 98.0213 153.952 114.807C154.382 115.568 154.853 116.308 155.368 117.163C157.445 114.776 157.618 112.767 155.977 109.965C146.166 93.268 133.745 79.2293 116.549 69.8186C103.329 62.5893 89.0076 59.6466 74.1769 58.2933C59.7249 56.988 45.1729 56.3 31.1036 52.256C20.4863 49.2133 11.0063 44.224 3.41559 36.0293C2.80759 35.3746 2.12492 34.7399 1.70626 33.9733C0.45159 31.692 0.410254 29.3573 2.43425 27.5479C4.53825 25.6693 7.19292 25.4493 9.08092 27.5693C20.9943 40.9666 37.0423 44.3866 53.7036 46.3479C66.3449 47.8439 79.1249 48.5786 91.6463 50.756C120.956 55.8386 142.904 72.264 159.345 96.5933C160.593 98.4306 161.778 100.308 163.09 102.317Z" fill="#231F20"/>
<path d="M90.3872 40.8455C89.3432 42.1201 87.4606 42.3148 86.1846 41.2708C84.9059 40.2268 84.7166 38.3441 85.7552 37.0628L90.3872 40.8455ZM90.3872 40.8455L85.7552 37.0628L87.5499 34.9228L89.4059 32.8401L91.3059 30.8161L93.2619 28.8535L95.2606 26.9495L97.3072 25.1028L99.4099 23.3148L101.55 21.5935L103.738 19.9361L105.962 18.3308L108.229 16.8041L110.542 15.3348L112.886 13.9241L115.269 12.5868L117.687 11.3121L120.137 10.1108L122.623 8.97746L125.135 7.90679L127.681 6.91079L130.251 5.97079L132.847 5.11612L135.47 4.32946L138.119 3.61079L140.785 2.96546L143.47 2.39346L146.177 1.90012L148.905 1.47479L151.654 1.12946L154.407 0.856121L157.182 0.66679L159.963 0.541454L162.754 0.505459V6.48412L160.131 6.52146L157.518 6.63212L154.911 6.81612L152.321 7.06812L149.745 7.39346L147.185 7.79079L144.635 8.25879L142.106 8.79879L139.599 9.40145L137.113 10.0735L134.646 10.8135L132.207 11.6215L129.789 12.4921L127.397 13.4361L125.037 14.4428L122.702 15.5135L120.399 16.6468L118.127 17.8375L115.887 19.1015L113.685 20.4135L111.513 21.7975L109.377 23.2401L107.285 24.7348L105.233 26.3041L103.218 27.9148L101.251 29.5988L99.3206 31.3295L97.4419 33.1228L95.6019 34.9708L93.8232 36.8748L92.0766 38.8308L90.3872 40.8455ZM162.754 6.48412V0.505459L165.67 0.552128L168.571 0.678791L171.462 0.888126L174.331 1.17746L177.191 1.56012L180.023 2.02146L182.841 2.55613L185.637 3.17479L188.406 3.86679L191.155 4.65346L193.873 5.50412L196.569 6.43746L199.223 7.44546L201.857 8.52012L204.458 9.68012L207.019 10.9068L209.547 12.2081L212.034 13.5828L214.489 15.0308L216.891 16.5521L219.262 18.1255L221.581 19.7841L223.858 21.5041L226.087 23.2975L228.265 25.1548L230.394 27.0748L232.471 29.0588L234.491 31.1095L236.459 33.2241L238.367 35.3961L240.225 37.6295L242.014 39.9321L237.245 43.5415L235.557 41.3748L233.819 39.2721L232.031 37.2321L230.179 35.2428L228.275 33.3228L226.329 31.4508L224.33 29.6455L222.274 27.9041L220.181 26.2201L218.041 24.6041L215.858 23.0508L213.639 21.5561L211.373 20.1348L209.07 18.7761L206.73 17.4855L204.354 16.2588L201.951 15.1041L199.506 14.0121L197.035 13.0001L194.529 12.0615L191.994 11.1801L189.445 10.3775L186.863 9.64812L184.262 8.99212L181.634 8.40946L178.985 7.90679L176.325 7.47079L173.634 7.12012L170.938 6.84679L168.226 6.64279L165.493 6.52146L162.754 6.48412ZM242.014 39.9321C243.011 41.2495 242.749 43.1175 241.431 44.1188C240.121 45.1161 238.242 44.8535 237.245 43.5415L242.014 39.9321Z" fill="#231F20"/>
<path d="M71.549 83.726C68.4597 93.294 66.8904 103.287 66.8904 113.334C66.8904 166.569 110.044 209.721 163.278 209.721C216.514 209.721 259.666 166.569 259.666 113.334C259.666 103.913 258.286 94.542 255.564 85.5194" stroke="#231F20" stroke-width="6.66667" stroke-miterlimit="22.926" stroke-linecap="round" stroke-linejoin="round"/>
</svg>
